<?xml version="1.0" encoding="UTF-8"?>
<svg id="Capa_2" data-name="Capa 2" xmlns="http://www.w3.org/2000/svg" viewBox="0 0 1083.58 171.97">
  <defs>
    <style>
      .cls-1 {
        fill-rule: evenodd;
      }
    </style>
  </defs>
  <g id="Capa_1-2" data-name="Capa 1">
    <path id="sitemaster" class="cls-1" d="M51.6,171.87c15.52,0,28.04-3.24,37.56-9.72,9.52-6.48,14.19-16.12,14-28.92,0-8.67-2.4-15.43-7.2-20.28-4.65-4.79-10.43-8.34-16.8-10.32-7.79-2.32-15.73-4.12-23.76-5.4-8-1.28-13.84-2.64-17.52-4.08s-5.52-3.6-5.52-6.48c0-3.2,1.72-5.84,5.16-7.92,3.91-2.2,8.35-3.28,12.84-3.12,4.82-.11,9.57,1.05,13.8,3.36,3.92,2.24,5.88,5.04,5.88,8.4h29.78c0-12.32-4.56-21.96-13.68-28.92-9.12-6.96-20.87-10.44-35.26-10.44-8.63-.12-17.19,1.47-25.2,4.68-6.98,2.73-13.13,7.21-17.88,13-4.3,5.24-6.64,11.82-6.6,18.6,0,8.96,2.28,15.88,6.84,20.76,4.41,4.79,9.99,8.35,16.2,10.32,7.71,2.34,15.56,4.15,23.52,5.4,8.48,1.44,14.64,2.88,18.48,4.32,3.84,1.44,5.76,3.92,5.76,7.44,0,3.33-1.72,6.09-5.16,8.28-3.44,2.19-8.28,3.27-14.52,3.24-6.56,0-11.96-1.2-16.2-3.6-4.24-2.4-6.36-5.52-6.36-9.36H0c0,8.67,2.36,16.07,7.08,22.2,4.88,6.28,11.4,11.1,18.84,13.92,8.18,3.18,16.9,4.77,25.68,4.68v-.04ZM133.92,37.23c4.92.08,9.65-1.87,13.08-5.4,3.57-3.51,5.52-8.34,5.4-13.35C152.42,8.3,144.18.03,134,0h-.08c-5.01-.1-9.83,1.89-13.32,5.48-3.51,3.41-5.46,8.11-5.4,13-.16,10.18,7.96,18.56,18.14,18.72,0,0,.02,0,.02,0l.56.03ZM118.32,169.95h31.2V49.95h-31.2v120ZM229.2,80.48v-30.53h-21.6V2.19h-31.2v47.76h-17.76v30.53h17.76v32.88c0,19.33,4.76,33.73,14.28,43.2,9.52,9.47,22.36,14.19,38.52,14.16v-30.53c-7.68,0-13.2-2.08-16.56-6.24s-5.03-11.04-5-20.64v-32.83h21.56ZM237.6,110.24c-.1,10.89,2.76,21.61,8.28,31,5.39,9.31,13.13,17.05,22.44,22.44,9.46,5.53,20.24,8.39,31.2,8.28,12.14.1,24.03-3.5,34.08-10.32,10-6.61,17.91-15.93,22.8-26.88l-37.2-.24c-2.58,2.08-5.45,3.76-8.52,5-3.88,1.41-7.99,2.06-12.12,1.92-7.04,0-13-1.72-17.88-5.16-4.8-3.32-8.18-8.31-9.48-14h89c.82-4.92,1.15-9.9,1-14.88-.32-12.16-3.56-22.72-9.72-31.68-5.91-8.74-13.97-15.8-23.4-20.52-9.15-4.65-19.26-7.07-29.52-7.08-10.87-.09-21.56,2.86-30.84,8.52-18.75,11.36-30.18,31.72-30.12,53.64v-.04ZM271.2,97.24c2.33-5.49,6.14-10.23,11-13.68,5.09-3.43,11.14-5.18,17.28-5,12.3.09,23.4,7.4,28.34,18.67h-56.62ZM505.2,48.04c-7.54-.1-15.02,1.33-22,4.2-6.42,2.66-12.06,6.91-16.38,12.35-4.34-5.45-10-9.7-16.44-12.36-6.98-2.87-14.46-4.3-22-4.2-16.16,0-29.2,4.96-39.12,14.88-9.92,9.92-14.88,24.56-14.88,43.92v63.12h31.2v-63.12c0-9.6,1.88-16.72,5.64-21.36,3.76-4.64,9.48-6.97,17.16-7,7.84,0,13.6,2.33,17.28,7,3.68,4.67,5.52,11.79,5.52,21.36v63.12h31.2v-63.12c0-9.6,1.88-16.72,5.64-21.36,3.76-4.64,9.48-6.97,17.16-7,7.84,0,13.6,2.33,17.28,7,3.68,4.67,5.52,11.79,5.52,21.36v63.12h31.2v-63.12c0-19.33-4.96-33.97-14.88-43.92-9.92-9.95-22.96-14.91-39.11-14.88h.01ZM634.32,171.87c6.58.04,13.08-1.43,19-4.32,5.92-2.88,9.76-6.32,11.52-10.32v12.72h31.19v-60c-.1-34.1-27.83-61.66-61.93-61.55-34.1.1-61.66,27.83-61.55,61.93.07,21.98,11.81,42.26,30.84,53.26,9.39,5.52,20.11,8.38,31,8.28h-.07ZM634.56,141.39c-8.29.21-16.3-3.05-22.08-9-5.92-6-8.88-13.48-8.88-22.44s2.96-16.45,8.88-22.47c5.79-5.94,13.79-9.21,22.08-9,8.8,0,16.08,3,21.84,9s8.64,13.48,8.64,22.44-2.88,16.44-8.64,22.44-13.04,9-21.84,9v.03ZM759.56,171.87c15.51,0,28.03-3.24,37.56-9.72,9.53-6.48,14.19-16.12,14-28.92,0-8.67-2.4-15.43-7.2-20.28-4.66-4.78-10.43-8.33-16.8-10.32-7.79-2.32-15.73-4.12-23.76-5.4-8-1.28-13.84-2.64-17.52-4.08-3.69-1.44-5.52-3.6-5.52-6.48,0-3.2,1.71-5.84,5.16-7.92,3.91-2.2,8.35-3.28,12.84-3.12,4.81-.11,9.57,1.05,13.8,3.36,3.92,2.24,5.88,5.04,5.88,8.4h29.82c0-12.32-4.56-21.96-13.68-28.92-9.12-6.96-20.88-10.44-35.28-10.44-8.63-.12-17.19,1.47-25.2,4.68-6.98,2.73-13.13,7.21-17.88,13-4.31,5.24-6.64,11.82-6.6,18.6,0,8.96,2.28,15.88,6.84,20.76,4.41,4.79,9.99,8.35,16.2,10.32,7.7,2.35,15.56,4.15,23.52,5.4,8.48,1.44,14.64,2.88,18.48,4.32s5.76,3.92,5.76,7.44c0,3.33-1.72,6.09-5.16,8.28-3.45,2.16-8.28,3.24-14.52,3.24-6.57,0-11.97-1.2-16.2-3.6-4.23-2.4-6.35-5.52-6.36-9.36h-29.77c0,8.67,2.36,16.07,7.08,22.2,4.88,6.28,11.4,11.1,18.84,13.92,8.18,3.19,16.9,4.77,25.68,4.68h0v-.04ZM885.56,80.43v-30.48h-21.61V2.19h-31.13v47.76h-17.76v30.53h17.76v32.88c0,19.33,4.76,33.73,14.28,43.2,9.52,9.47,22.36,14.19,38.52,14.16v-30.53c-7.68,0-13.2-2.08-16.56-6.24s-5.03-11.04-5-20.64v-32.83h21.61l-.11-.05ZM893.95,110.19c-.1,10.89,2.76,21.61,8.28,31,5.39,9.31,13.13,17.05,22.44,22.44,9.46,5.53,20.24,8.39,31.2,8.28,12.14.1,24.03-3.5,34.08-10.32,10.01-6.6,17.92-15.93,22.8-26.88l-37.2-.24c-2.58,2.08-5.45,3.76-8.52,5-3.88,1.41-7.99,2.06-12.12,1.92-7.04,0-13-1.72-17.88-5.16-4.8-3.32-8.18-8.31-9.48-14h89c.82-4.91,1.16-9.9,1-14.88-.32-12.16-3.56-22.72-9.72-31.68-5.91-8.74-13.97-15.8-23.4-20.52-9.15-4.65-19.26-7.07-29.52-7.08-10.87-.09-21.56,2.86-30.84,8.52-18.75,11.36-30.18,31.72-30.12,53.64v-.04ZM927.55,97.19c2.33-5.49,6.14-10.23,11-13.68,5.09-3.43,11.14-5.18,17.28-5,12.31.1,23.4,7.44,28.32,18.72l-56.6-.04ZM1030.82,169.95h31.2v-63.12c0-9.28,1.67-16.08,5-20.4,3.33-4.32,8.45-6.48,15.36-6.48h1.2v-30.47h-1.44c-15.33,0-27.73,4.8-37.2,14.4-9.47,9.6-14.19,23.93-14.16,43l.04,63.07Z"/>
  </g>
</svg>