<?xml version="1.0" encoding="UTF-8"?>
<svg id="Capa_1" xmlns="http://www.w3.org/2000/svg" version="1.1" viewBox="0 0 1423.8 266.9">
  <!-- Generator: Adobe Illustrator 29.3.1, SVG Export Plug-In . SVG Version: 2.1.0 Build 151)  -->
  <defs>
    <style>
      .st0, .st1 {
        stroke: #000;
      }

      .st0, .st1, .st2, .st3, .st4, .st5 {
        fill: none;
        stroke-width: 22px;
      }

      .st0, .st2, .st4 {
        stroke-miterlimit: 10;
      }

      .st6 {
        fill: #944feb;
      }

      .st6, .st7, .st8 {
        fill-rule: evenodd;
      }

      .st7 {
        fill: #fff;
      }

      .st1, .st3, .st5 {
        stroke-linecap: round;
        stroke-linejoin: round;
      }

      .st2, .st5 {
        stroke: #fff;
      }

      .st3, .st4 {
        stroke: #944feb;
      }
    </style>
  </defs>
  <g id="Capa_2-2">
    <g id="Capa_1_Imagen">
      <path class="st4" d="M-1694-842.6v-36.7c0-61.2-24.5-85.6-85.7-85.6h-73.4c-61.2,0-85.6,24.5-85.6,85.6v73.4c0,61.2,24.5,85.6,85.6,85.6h36.7"/>
      <path class="st3" d="M-1706.8-771.1l-19.9,6.7c-5.6,1.8-9.9,6.2-11.7,11.8l-6.7,19.9c-5.8,17.2-30,16.9-35.4-.4l-22.6-72.8c-4.4-14.4,8.9-27.9,23.2-23.4l72.9,22.7c17.1,5.4,17.4,29.7.2,35.5Z"/>
    </g>
  </g>
  <g id="Capa_2-21" data-name="Capa_2-2">
    <g id="Capa_1_Imagen1" data-name="Capa_1_Imagen">
      <path class="st4" d="M-1687.2,907.5v-36.7c0-61.2-24.5-85.6-85.7-85.6h-73.4c-61.2,0-85.6,24.5-85.6,85.6v73.4c0,61.2,24.5,85.6,85.6,85.6h36.7"/>
      <path class="st3" d="M-1699.9,979l-19.9,6.7c-5.6,1.8-9.9,6.2-11.7,11.8l-6.7,19.9c-5.8,17.2-30,16.9-35.4-.4l-22.6-72.8c-4.4-14.4,8.9-27.9,23.2-23.4l72.9,22.7c17.1,5.4,17.4,29.7.2,35.5Z"/>
    </g>
  </g>
  <g id="Capa_2-22" data-name="Capa_2-2">
    <g id="Capa_1_Imagen2" data-name="Capa_1_Imagen">
      <path class="st2" d="M-1694-533.5v-36.7c0-61.2-24.5-85.6-85.7-85.6h-73.4c-61.2,0-85.6,24.5-85.6,85.6v73.4c0,61.2,24.5,85.6,85.6,85.6h36.7"/>
      <path class="st5" d="M-1706.8-462.1l-19.9,6.7c-5.6,1.8-9.9,6.2-11.7,11.8l-6.7,19.9c-5.8,17.2-30,16.9-35.4-.4l-22.6-72.8c-4.4-14.4,8.9-27.9,23.2-23.4l72.9,22.7c17.1,5.4,17.4,29.7.2,35.5Z"/>
    </g>
  </g>
  <g id="Capa_2-23" data-name="Capa_2-2">
    <g id="Capa_1_Imagen3" data-name="Capa_1_Imagen">
      <path class="st0" d="M-1694-224.5v-36.7c0-61.2-24.5-85.6-85.7-85.6h-73.4c-61.2,0-85.6,24.5-85.6,85.6v73.4c0,61.2,24.5,85.6,85.6,85.6h36.7"/>
      <path class="st1" d="M-1706.8-153.1l-19.9,6.7c-5.6,1.8-9.9,6.2-11.7,11.8l-6.7,19.9c-5.8,17.2-30,16.9-35.4-.4l-22.6-72.8c-4.4-14.4,8.9-27.9,23.2-23.4l72.9,22.7c17.1,5.4,17.4,29.7.2,35.5Z"/>
    </g>
  </g>
  <path id="sitemaster" class="st6" d="M262.7-167.2c15.5,0,28-3.2,37.6-9.7,9.5-6.5,14.2-16.1,14-28.9,0-8.7-2.4-15.4-7.2-20.3-4.7-4.8-10.4-8.3-16.8-10.3-7.8-2.3-15.7-4.1-23.8-5.4-8-1.3-13.8-2.6-17.5-4.1s-5.5-3.6-5.5-6.5,1.7-5.8,5.2-7.9c3.9-2.2,8.4-3.3,12.8-3.1,4.8-.1,9.6,1,13.8,3.4,3.9,2.2,5.9,5,5.9,8.4h29.8c0-12.3-4.6-22-13.7-28.9-9.1-7-20.9-10.4-35.3-10.4-8.6-.1-17.2,1.5-25.2,4.7-7,2.7-13.1,7.2-17.9,13-4.3,5.2-6.6,11.8-6.6,18.6,0,9,2.3,15.9,6.8,20.8,4.4,4.8,10,8.3,16.2,10.3,7.7,2.3,15.6,4.1,23.5,5.4,8.5,1.4,14.6,2.9,18.5,4.3,3.8,1.4,5.8,3.9,5.8,7.4,0,3.3-1.7,6.1-5.2,8.3-3.4,2.2-8.3,3.3-14.5,3.2-6.6,0-12-1.2-16.2-3.6-4.2-2.4-6.4-5.5-6.4-9.4h-29.8c0,8.7,2.4,16.1,7.1,22.2,4.9,6.3,11.4,11.1,18.8,13.9,8.2,3.2,16.9,4.8,25.7,4.7h0ZM345.1-301.8c4.9,0,9.7-1.9,13.1-5.4,3.6-3.5,5.5-8.3,5.4-13.3,0-10.2-8.2-18.5-18.4-18.5h0c-5,0-9.8,1.9-13.3,5.5-3.5,3.4-5.5,8.1-5.4,13-.2,10.2,8,18.6,18.1,18.7,0,0,0,0,0,0h.6ZM329.5-169.1h31.2v-120h-31.2v120ZM440.3-258.5v-30.5h-21.6v-47.8h-31.2v47.8h-17.8v30.5h17.8v32.9c0,19.3,4.8,33.7,14.3,43.2,9.5,9.5,22.4,14.2,38.5,14.2v-30.5c-7.7,0-13.2-2.1-16.6-6.2s-5-11-5-20.6v-32.8h21.6ZM448.7-228.8c0,10.9,2.8,21.6,8.3,31,5.4,9.3,13.1,17,22.4,22.4,9.5,5.5,20.2,8.4,31.2,8.3,12.1,0,24-3.5,34.1-10.3,10-6.6,17.9-15.9,22.8-26.9l-37.2-.2c-2.6,2.1-5.5,3.8-8.5,5-3.9,1.4-8,2.1-12.1,1.9-7,0-13-1.7-17.9-5.2-4.8-3.3-8.2-8.3-9.5-14h89c.8-4.9,1.2-9.9,1-14.9-.3-12.2-3.6-22.7-9.7-31.7-5.9-8.7-14-15.8-23.4-20.5-9.1-4.6-19.3-7.1-29.5-7.1-10.9,0-21.6,2.9-30.8,8.5-18.8,11.4-30.2,31.7-30.1,53.6h0ZM482.3-241.8c2.3-5.5,6.1-10.2,11-13.7,5.1-3.4,11.1-5.2,17.3-5,12.3,0,23.4,7.4,28.3,18.7h-56.6ZM716.3-291c-7.5,0-15,1.3-22,4.2-6.4,2.7-12.1,6.9-16.4,12.4-4.3-5.4-10-9.7-16.4-12.4-7-2.9-14.5-4.3-22-4.2-16.2,0-29.2,5-39.1,14.9-9.9,9.9-14.9,24.6-14.9,43.9v63.1h31.2v-63.1c0-9.6,1.9-16.7,5.6-21.4,3.8-4.6,9.5-7,17.2-7,7.8,0,13.6,2.3,17.3,7,3.7,4.7,5.5,11.8,5.5,21.4v63.1h31.2v-63.1c0-9.6,1.9-16.7,5.6-21.4,3.8-4.6,9.5-7,17.2-7,7.8,0,13.6,2.3,17.3,7,3.7,4.7,5.5,11.8,5.5,21.4v63.1h31.2v-63.1c0-19.3-5-34-14.9-43.9-9.9-9.9-23-14.9-39.1-14.9h0ZM845.5-167.2c6.6,0,13.1-1.4,19-4.3,5.9-2.9,9.8-6.3,11.5-10.3v12.7h31.2v-60c-.1-34.1-27.8-61.7-61.9-61.6-34.1.1-61.7,27.8-61.6,61.9,0,22,11.8,42.3,30.8,53.3,9.4,5.5,20.1,8.4,31,8.3h0ZM845.7-197.6c-8.3.2-16.3-3.1-22.1-9-5.9-6-8.9-13.5-8.9-22.4s3-16.4,8.9-22.5c5.8-5.9,13.8-9.2,22.1-9,8.8,0,16.1,3,21.8,9s8.6,13.5,8.6,22.4-2.9,16.4-8.6,22.4-13,9-21.8,9h0ZM970.7-167.2c15.5,0,28-3.2,37.6-9.7,9.5-6.5,14.2-16.1,14-28.9,0-8.7-2.4-15.4-7.2-20.3-4.7-4.8-10.4-8.3-16.8-10.3-7.8-2.3-15.7-4.1-23.8-5.4-8-1.3-13.8-2.6-17.5-4.1-3.7-1.4-5.5-3.6-5.5-6.5s1.7-5.8,5.2-7.9c3.9-2.2,8.4-3.3,12.8-3.1,4.8-.1,9.6,1.1,13.8,3.4,3.9,2.2,5.9,5,5.9,8.4h29.8c0-12.3-4.6-22-13.7-28.9-9.1-7-20.9-10.4-35.3-10.4-8.6-.1-17.2,1.5-25.2,4.7-7,2.7-13.1,7.2-17.9,13-4.3,5.2-6.6,11.8-6.6,18.6,0,9,2.3,15.9,6.8,20.8,4.4,4.8,10,8.3,16.2,10.3,7.7,2.3,15.6,4.2,23.5,5.4,8.5,1.4,14.6,2.9,18.5,4.3s5.8,3.9,5.8,7.4-1.7,6.1-5.2,8.3c-3.4,2.2-8.3,3.2-14.5,3.2s-12-1.2-16.2-3.6c-4.2-2.4-6.3-5.5-6.4-9.4h-29.8c0,8.7,2.4,16.1,7.1,22.2,4.9,6.3,11.4,11.1,18.8,13.9,8.2,3.2,16.9,4.8,25.7,4.7h0ZM1096.7-258.6v-30.5h-21.6v-47.8h-31.1v47.8h-17.8v30.5h17.8v32.9c0,19.3,4.8,33.7,14.3,43.2,9.5,9.5,22.4,14.2,38.5,14.2v-30.5c-7.7,0-13.2-2.1-16.6-6.2s-5-11-5-20.6v-32.8h21.6-.1ZM1105.1-228.8c0,10.9,2.8,21.6,8.3,31,5.4,9.3,13.1,17,22.4,22.4,9.5,5.5,20.2,8.4,31.2,8.3,12.1,0,24-3.5,34.1-10.3,10-6.6,17.9-15.9,22.8-26.9l-37.2-.2c-2.6,2.1-5.5,3.8-8.5,5-3.9,1.4-8,2.1-12.1,1.9-7,0-13-1.7-17.9-5.2-4.8-3.3-8.2-8.3-9.5-14h89c.8-4.9,1.2-9.9,1-14.9-.3-12.2-3.6-22.7-9.7-31.7-5.9-8.7-14-15.8-23.4-20.5-9.1-4.6-19.3-7.1-29.5-7.1-10.9,0-21.6,2.9-30.8,8.5-18.8,11.4-30.2,31.7-30.1,53.6h0ZM1138.7-241.8c2.3-5.5,6.1-10.2,11-13.7,5.1-3.4,11.1-5.2,17.3-5,12.3.1,23.4,7.4,28.3,18.7h-56.6ZM1242-169.1h31.2v-63.1c0-9.3,1.7-16.1,5-20.4,3.3-4.3,8.5-6.5,15.4-6.5h1.2v-30.5h-1.4c-15.3,0-27.7,4.8-37.2,14.4-9.5,9.6-14.2,23.9-14.2,43v63.1Z"/>
  <path id="sitemaster1" data-name="sitemaster" class="st7" d="M245.4-502.9c15.5,0,28-3.2,37.6-9.7,9.5-6.5,14.2-16.1,14-28.9,0-8.7-2.4-15.4-7.2-20.3-4.7-4.8-10.4-8.3-16.8-10.3-7.8-2.3-15.7-4.1-23.8-5.4-8-1.3-13.8-2.6-17.5-4.1s-5.5-3.6-5.5-6.5,1.7-5.8,5.2-7.9c3.9-2.2,8.4-3.3,12.8-3.1,4.8-.1,9.6,1,13.8,3.4,3.9,2.2,5.9,5,5.9,8.4h29.8c0-12.3-4.6-22-13.7-28.9-9.1-7-20.9-10.4-35.3-10.4-8.6-.1-17.2,1.5-25.2,4.7-7,2.7-13.1,7.2-17.9,13-4.3,5.2-6.6,11.8-6.6,18.6,0,9,2.3,15.9,6.8,20.8,4.4,4.8,10,8.3,16.2,10.3,7.7,2.3,15.6,4.1,23.5,5.4,8.5,1.4,14.6,2.9,18.5,4.3,3.8,1.4,5.8,3.9,5.8,7.4,0,3.3-1.7,6.1-5.2,8.3-3.4,2.2-8.3,3.3-14.5,3.2-6.6,0-12-1.2-16.2-3.6-4.2-2.4-6.4-5.5-6.4-9.4h-29.8c0,8.7,2.4,16.1,7.1,22.2,4.9,6.3,11.4,11.1,18.8,13.9,8.2,3.2,16.9,4.8,25.7,4.7h0ZM327.7-637.6c4.9,0,9.7-1.9,13.1-5.4,3.6-3.5,5.5-8.3,5.4-13.3,0-10.2-8.2-18.5-18.4-18.5h0c-5,0-9.8,1.9-13.3,5.5-3.5,3.4-5.5,8.1-5.4,13-.2,10.2,8,18.6,18.1,18.7,0,0,0,0,0,0h.6ZM312.1-504.8h31.2v-120h-31.2v120ZM423-594.3v-30.5h-21.6v-47.8h-31.2v47.8h-17.8v30.5h17.8v32.9c0,19.3,4.8,33.7,14.3,43.2,9.5,9.5,22.4,14.2,38.5,14.2v-30.5c-7.7,0-13.2-2.1-16.6-6.2s-5-11-5-20.6v-32.8h21.6ZM431.4-564.6c0,10.9,2.8,21.6,8.3,31,5.4,9.3,13.1,17,22.4,22.4,9.5,5.5,20.2,8.4,31.2,8.3,12.1,0,24-3.5,34.1-10.3,10-6.6,17.9-15.9,22.8-26.9l-37.2-.2c-2.6,2.1-5.5,3.8-8.5,5-3.9,1.4-8,2.1-12.1,1.9-7,0-13-1.7-17.9-5.2-4.8-3.3-8.2-8.3-9.5-14h89c.8-4.9,1.2-9.9,1-14.9-.3-12.2-3.6-22.7-9.7-31.7-5.9-8.7-14-15.8-23.4-20.5-9.1-4.6-19.3-7.1-29.5-7.1-10.9,0-21.6,2.9-30.8,8.5-18.8,11.4-30.2,31.7-30.1,53.6h0ZM465-577.6c2.3-5.5,6.1-10.2,11-13.7,5.1-3.4,11.1-5.2,17.3-5,12.3,0,23.4,7.4,28.3,18.7h-56.6ZM699-626.8c-7.5,0-15,1.3-22,4.2-6.4,2.7-12.1,6.9-16.4,12.4-4.3-5.4-10-9.7-16.4-12.4-7-2.9-14.5-4.3-22-4.2-16.2,0-29.2,5-39.1,14.9-9.9,9.9-14.9,24.6-14.9,43.9v63.1h31.2v-63.1c0-9.6,1.9-16.7,5.6-21.4,3.8-4.6,9.5-7,17.2-7,7.8,0,13.6,2.3,17.3,7,3.7,4.7,5.5,11.8,5.5,21.4v63.1h31.2v-63.1c0-9.6,1.9-16.7,5.6-21.4,3.8-4.6,9.5-7,17.2-7,7.8,0,13.6,2.3,17.3,7,3.7,4.7,5.5,11.8,5.5,21.4v63.1h31.2v-63.1c0-19.3-5-34-14.9-43.9-9.9-9.9-23-14.9-39.1-14.9h0ZM828.1-502.9c6.6,0,13.1-1.4,19-4.3,5.9-2.9,9.8-6.3,11.5-10.3v12.7h31.2v-60c-.1-34.1-27.8-61.7-61.9-61.6-34.1.1-61.7,27.8-61.6,61.9,0,22,11.8,42.3,30.8,53.3,9.4,5.5,20.1,8.4,31,8.3h0ZM828.3-533.4c-8.3.2-16.3-3.1-22.1-9-5.9-6-8.9-13.5-8.9-22.4s3-16.4,8.9-22.5c5.8-5.9,13.8-9.2,22.1-9,8.8,0,16.1,3,21.8,9s8.6,13.5,8.6,22.4-2.9,16.4-8.6,22.4-13,9-21.8,9h0ZM953.3-502.9c15.5,0,28-3.2,37.6-9.7,9.5-6.5,14.2-16.1,14-28.9,0-8.7-2.4-15.4-7.2-20.3-4.7-4.8-10.4-8.3-16.8-10.3-7.8-2.3-15.7-4.1-23.8-5.4-8-1.3-13.8-2.6-17.5-4.1-3.7-1.4-5.5-3.6-5.5-6.5s1.7-5.8,5.2-7.9c3.9-2.2,8.4-3.3,12.8-3.1,4.8-.1,9.6,1.1,13.8,3.4,3.9,2.2,5.9,5,5.9,8.4h29.8c0-12.3-4.6-22-13.7-28.9-9.1-7-20.9-10.4-35.3-10.4-8.6-.1-17.2,1.5-25.2,4.7-7,2.7-13.1,7.2-17.9,13-4.3,5.2-6.6,11.8-6.6,18.6,0,9,2.3,15.9,6.8,20.8,4.4,4.8,10,8.3,16.2,10.3,7.7,2.3,15.6,4.2,23.5,5.4,8.5,1.4,14.6,2.9,18.5,4.3s5.8,3.9,5.8,7.4-1.7,6.1-5.2,8.3c-3.4,2.2-8.3,3.2-14.5,3.2s-12-1.2-16.2-3.6c-4.2-2.4-6.3-5.5-6.4-9.4h-29.8c0,8.7,2.4,16.1,7.1,22.2,4.9,6.3,11.4,11.1,18.8,13.9,8.2,3.2,16.9,4.8,25.7,4.7h0ZM1079.3-594.4v-30.5h-21.6v-47.8h-31.1v47.8h-17.8v30.5h17.8v32.9c0,19.3,4.8,33.7,14.3,43.2,9.5,9.5,22.4,14.2,38.5,14.2v-30.5c-7.7,0-13.2-2.1-16.6-6.2s-5-11-5-20.6v-32.8h21.6-.1ZM1087.7-564.6c0,10.9,2.8,21.6,8.3,31,5.4,9.3,13.1,17,22.4,22.4,9.5,5.5,20.2,8.4,31.2,8.3,12.1,0,24-3.5,34.1-10.3,10-6.6,17.9-15.9,22.8-26.9l-37.2-.2c-2.6,2.1-5.5,3.8-8.5,5-3.9,1.4-8,2.1-12.1,1.9-7,0-13-1.7-17.9-5.2-4.8-3.3-8.2-8.3-9.5-14h89c.8-4.9,1.2-9.9,1-14.9-.3-12.2-3.6-22.7-9.7-31.7-5.9-8.7-14-15.8-23.4-20.5-9.1-4.6-19.3-7.1-29.5-7.1-10.9,0-21.6,2.9-30.8,8.5-18.8,11.4-30.2,31.7-30.1,53.6h0ZM1121.3-577.6c2.3-5.5,6.1-10.2,11-13.7,5.1-3.4,11.1-5.2,17.3-5,12.3.1,23.4,7.4,28.3,18.7h-56.6ZM1224.6-504.8h31.2v-63.1c0-9.3,1.7-16.1,5-20.4,3.3-4.3,8.5-6.5,15.4-6.5h1.2v-30.5h-1.4c-15.3,0-27.7,4.8-37.2,14.4-9.5,9.6-14.2,23.9-14.2,43v63.1Z"/>
  <path id="sitemaster2" data-name="sitemaster" class="st7" d="M-1532.8,974.9c15.5,0,28-3.2,37.6-9.7,9.5-6.5,14.2-16.1,14-28.9,0-8.7-2.4-15.4-7.2-20.3-4.7-4.8-10.4-8.3-16.8-10.3-7.8-2.3-15.7-4.1-23.8-5.4-8-1.3-13.8-2.6-17.5-4.1s-5.5-3.6-5.5-6.5,1.7-5.8,5.2-7.9c3.9-2.2,8.4-3.3,12.8-3.1,4.8-.1,9.6,1,13.8,3.4,3.9,2.2,5.9,5,5.9,8.4h29.8c0-12.3-4.6-22-13.7-28.9-9.1-7-20.9-10.4-35.3-10.4-8.6-.1-17.2,1.5-25.2,4.7-7,2.7-13.1,7.2-17.9,13-4.3,5.2-6.6,11.8-6.6,18.6,0,9,2.3,15.9,6.8,20.8,4.4,4.8,10,8.3,16.2,10.3,7.7,2.3,15.6,4.1,23.5,5.4,8.5,1.4,14.6,2.9,18.5,4.3,3.8,1.4,5.8,3.9,5.8,7.4,0,3.3-1.7,6.1-5.2,8.3-3.4,2.2-8.3,3.3-14.5,3.2-6.6,0-12-1.2-16.2-3.6-4.2-2.4-6.4-5.5-6.4-9.4h-29.8c0,8.7,2.4,16.1,7.1,22.2,4.9,6.3,11.4,11.1,18.8,13.9,8.2,3.2,16.9,4.8,25.7,4.7h0ZM-1450.5,840.3c4.9,0,9.7-1.9,13.1-5.4,3.6-3.5,5.5-8.3,5.4-13.3,0-10.2-8.2-18.5-18.4-18.5h0c-5,0-9.8,1.9-13.3,5.5-3.5,3.4-5.5,8.1-5.4,13-.2,10.2,8,18.6,18.1,18.7,0,0,0,0,0,0h.6ZM-1466.1,973h31.2v-120h-31.2v120ZM-1355.2,883.5v-30.5h-21.6v-47.8h-31.2v47.8h-17.8v30.5h17.8v32.9c0,19.3,4.8,33.7,14.3,43.2,9.5,9.5,22.4,14.2,38.5,14.2v-30.5c-7.7,0-13.2-2.1-16.6-6.2s-5-11-5-20.6v-32.8h21.6ZM-1346.8,913.3c0,10.9,2.8,21.6,8.3,31,5.4,9.3,13.1,17,22.4,22.4,9.5,5.5,20.2,8.4,31.2,8.3,12.1,0,24-3.5,34.1-10.3,10-6.6,17.9-15.9,22.8-26.9l-37.2-.2c-2.6,2.1-5.5,3.8-8.5,5-3.9,1.4-8,2.1-12.1,1.9-7,0-13-1.7-17.9-5.2-4.8-3.3-8.2-8.3-9.5-14h89c.8-4.9,1.2-9.9,1-14.9-.3-12.2-3.6-22.7-9.7-31.7-5.9-8.7-14-15.8-23.4-20.5-9.1-4.6-19.3-7.1-29.5-7.1-10.9,0-21.6,2.9-30.8,8.5-18.8,11.4-30.2,31.7-30.1,53.6h0ZM-1313.2,900.3c2.3-5.5,6.1-10.2,11-13.7,5.1-3.4,11.1-5.2,17.3-5,12.3,0,23.4,7.4,28.3,18.7h-56.6ZM-1079.2,851.1c-7.5,0-15,1.3-22,4.2-6.4,2.7-12.1,6.9-16.4,12.4-4.3-5.4-10-9.7-16.4-12.4-7-2.9-14.5-4.3-22-4.2-16.2,0-29.2,5-39.1,14.9-9.9,9.9-14.9,24.6-14.9,43.9v63.1h31.2v-63.1c0-9.6,1.9-16.7,5.6-21.4,3.8-4.6,9.5-7,17.2-7,7.8,0,13.6,2.3,17.3,7,3.7,4.7,5.5,11.8,5.5,21.4v63.1h31.2v-63.1c0-9.6,1.9-16.7,5.6-21.4,3.8-4.6,9.5-7,17.2-7,7.8,0,13.6,2.3,17.3,7,3.7,4.7,5.5,11.8,5.5,21.4v63.1h31.2v-63.1c0-19.3-5-34-14.9-43.9-9.9-9.9-23-14.9-39.1-14.9h0ZM-950.1,974.9c6.6,0,13.1-1.4,19-4.3,5.9-2.9,9.8-6.3,11.5-10.3v12.7h31.2v-60c-.1-34.1-27.8-61.7-61.9-61.6-34.1.1-61.7,27.8-61.6,61.9,0,22,11.8,42.3,30.8,53.3,9.4,5.5,20.1,8.4,31,8.3h0ZM-949.9,944.5c-8.3.2-16.3-3.1-22.1-9-5.9-6-8.9-13.5-8.9-22.4s3-16.4,8.9-22.5c5.8-5.9,13.8-9.2,22.1-9,8.8,0,16.1,3,21.8,9s8.6,13.5,8.6,22.4-2.9,16.4-8.6,22.4-13,9-21.8,9h0ZM-824.9,974.9c15.5,0,28-3.2,37.6-9.7,9.5-6.5,14.2-16.1,14-28.9,0-8.7-2.4-15.4-7.2-20.3-4.7-4.8-10.4-8.3-16.8-10.3-7.8-2.3-15.7-4.1-23.8-5.4-8-1.3-13.8-2.6-17.5-4.1-3.7-1.4-5.5-3.6-5.5-6.5s1.7-5.8,5.2-7.9c3.9-2.2,8.4-3.3,12.8-3.1,4.8-.1,9.6,1.1,13.8,3.4,3.9,2.2,5.9,5,5.9,8.4h29.8c0-12.3-4.6-22-13.7-28.9-9.1-7-20.9-10.4-35.3-10.4-8.6-.1-17.2,1.5-25.2,4.7-7,2.7-13.1,7.2-17.9,13-4.3,5.2-6.6,11.8-6.6,18.6,0,9,2.3,15.9,6.8,20.8,4.4,4.8,10,8.3,16.2,10.3,7.7,2.3,15.6,4.2,23.5,5.4,8.5,1.4,14.6,2.9,18.5,4.3s5.8,3.9,5.8,7.4-1.7,6.1-5.2,8.3c-3.4,2.2-8.3,3.2-14.5,3.2s-12-1.2-16.2-3.6c-4.2-2.4-6.3-5.5-6.4-9.4h-29.8c0,8.7,2.4,16.1,7.1,22.2,4.9,6.3,11.4,11.1,18.8,13.9,8.2,3.2,16.9,4.8,25.7,4.7h0ZM-698.9,883.5v-30.5h-21.6v-47.8h-31.1v47.8h-17.8v30.5h17.8v32.9c0,19.3,4.8,33.7,14.3,43.2,9.5,9.5,22.4,14.2,38.5,14.2v-30.5c-7.7,0-13.2-2.1-16.6-6.2s-5-11-5-20.6v-32.8h21.6-.1ZM-690.5,913.3c0,10.9,2.8,21.6,8.3,31,5.4,9.3,13.1,17,22.4,22.4,9.5,5.5,20.2,8.4,31.2,8.3,12.1,0,24-3.5,34.1-10.3,10-6.6,17.9-15.9,22.8-26.9l-37.2-.2c-2.6,2.1-5.5,3.8-8.5,5-3.9,1.4-8,2.1-12.1,1.9-7,0-13-1.7-17.9-5.2-4.8-3.3-8.2-8.3-9.5-14h89c.8-4.9,1.2-9.9,1-14.9-.3-12.2-3.6-22.7-9.7-31.7-5.9-8.7-14-15.8-23.4-20.5-9.1-4.6-19.3-7.1-29.5-7.1-10.9,0-21.6,2.9-30.8,8.5-18.8,11.4-30.2,31.7-30.1,53.6h0ZM-656.9,900.3c2.3-5.5,6.1-10.2,11-13.7,5.1-3.4,11.1-5.2,17.3-5,12.3.1,23.4,7.4,28.3,18.7h-56.6ZM-553.6,973h31.2v-63.1c0-9.3,1.7-16.1,5-20.4,3.3-4.3,8.5-6.5,15.4-6.5h1.2v-30.5h-1.4c-15.3,0-27.7,4.8-37.2,14.4-9.5,9.6-14.2,23.9-14.2,43v63.1Z"/>
  <g id="Capa_2-24" data-name="Capa_2-2">
    <g id="Capa_1_Imagen4" data-name="Capa_1_Imagen">
      <path class="st4" d="M-1694,1297.5v-36.7c0-61.2-24.5-85.6-85.7-85.6h-73.4c-61.2,0-85.6,24.5-85.6,85.6v73.4c0,61.2,24.5,85.6,85.6,85.6h36.7"/>
      <path class="st3" d="M-1706.8,1369l-19.9,6.7c-5.6,1.8-9.9,6.2-11.7,11.8l-6.7,19.9c-5.8,17.2-30,16.9-35.4-.4l-22.6-72.8c-4.4-14.4,8.9-27.9,23.2-23.4l72.9,22.7c17.1,5.4,17.4,29.7.2,35.5Z"/>
    </g>
  </g>
  <path id="sitemaster3" data-name="sitemaster" class="st8" d="M-1539.7,1364.9c15.5,0,28-3.2,37.6-9.7,9.5-6.5,14.2-16.1,14-28.9,0-8.7-2.4-15.4-7.2-20.3-4.7-4.8-10.4-8.3-16.8-10.3-7.8-2.3-15.7-4.1-23.8-5.4-8-1.3-13.8-2.6-17.5-4.1s-5.5-3.6-5.5-6.5,1.7-5.8,5.2-7.9c3.9-2.2,8.4-3.3,12.8-3.1,4.8-.1,9.6,1,13.8,3.4,3.9,2.2,5.9,5,5.9,8.4h29.8c0-12.3-4.6-22-13.7-28.9-9.1-7-20.9-10.4-35.3-10.4-8.6-.1-17.2,1.5-25.2,4.7-7,2.7-13.1,7.2-17.9,13-4.3,5.2-6.6,11.8-6.6,18.6,0,9,2.3,15.9,6.8,20.8,4.4,4.8,10,8.3,16.2,10.3,7.7,2.3,15.6,4.1,23.5,5.4,8.5,1.4,14.6,2.9,18.5,4.3,3.8,1.4,5.8,3.9,5.8,7.4,0,3.3-1.7,6.1-5.2,8.3-3.4,2.2-8.3,3.3-14.5,3.2-6.6,0-12-1.2-16.2-3.6-4.2-2.4-6.4-5.5-6.4-9.4h-29.8c0,8.7,2.4,16.1,7.1,22.2,4.9,6.3,11.4,11.1,18.8,13.9,8.2,3.2,16.9,4.8,25.7,4.7h0ZM-1457.4,1230.3c4.9,0,9.7-1.9,13.1-5.4,3.6-3.5,5.5-8.3,5.4-13.3,0-10.2-8.2-18.5-18.4-18.5h0c-5,0-9.8,1.9-13.3,5.5-3.5,3.4-5.5,8.1-5.4,13-.2,10.2,8,18.6,18.1,18.7,0,0,0,0,0,0h.6ZM-1473,1363h31.2v-120h-31.2v120ZM-1362.1,1273.5v-30.5h-21.6v-47.8h-31.2v47.8h-17.8v30.5h17.8v32.9c0,19.3,4.8,33.7,14.3,43.2,9.5,9.5,22.4,14.2,38.5,14.2v-30.5c-7.7,0-13.2-2.1-16.6-6.2s-5-11-5-20.6v-32.8h21.6ZM-1353.7,1303.3c0,10.9,2.8,21.6,8.3,31,5.4,9.3,13.1,17,22.4,22.4,9.5,5.5,20.2,8.4,31.2,8.3,12.1,0,24-3.5,34.1-10.3,10-6.6,17.9-15.9,22.8-26.9l-37.2-.2c-2.6,2.1-5.5,3.8-8.5,5-3.9,1.4-8,2.1-12.1,1.9-7,0-13-1.7-17.9-5.2-4.8-3.3-8.2-8.3-9.5-14h89c.8-4.9,1.2-9.9,1-14.9-.3-12.2-3.6-22.7-9.7-31.7-5.9-8.7-14-15.8-23.4-20.5-9.1-4.6-19.3-7.1-29.5-7.1-10.9,0-21.6,2.9-30.8,8.5-18.8,11.4-30.2,31.7-30.1,53.6h0ZM-1320.1,1290.3c2.3-5.5,6.1-10.2,11-13.7,5.1-3.4,11.1-5.2,17.3-5,12.3,0,23.4,7.4,28.3,18.7h-56.6ZM-1086.1,1241.1c-7.5,0-15,1.3-22,4.2-6.4,2.7-12.1,6.9-16.4,12.4-4.3-5.4-10-9.7-16.4-12.4-7-2.9-14.5-4.3-22-4.2-16.2,0-29.2,5-39.1,14.9-9.9,9.9-14.9,24.6-14.9,43.9v63.1h31.2v-63.1c0-9.6,1.9-16.7,5.6-21.4,3.8-4.6,9.5-7,17.2-7,7.8,0,13.6,2.3,17.3,7,3.7,4.7,5.5,11.8,5.5,21.4v63.1h31.2v-63.1c0-9.6,1.9-16.7,5.6-21.4,3.8-4.6,9.5-7,17.2-7,7.8,0,13.6,2.3,17.3,7,3.7,4.7,5.5,11.8,5.5,21.4v63.1h31.2v-63.1c0-19.3-5-34-14.9-43.9-9.9-9.9-23-14.9-39.1-14.9h0ZM-957,1364.9c6.6,0,13.1-1.4,19-4.3,5.9-2.9,9.8-6.3,11.5-10.3v12.7h31.2v-60c-.1-34.1-27.8-61.7-61.9-61.6-34.1.1-61.7,27.8-61.6,61.9,0,22,11.8,42.3,30.8,53.3,9.4,5.5,20.1,8.4,31,8.3h0ZM-956.7,1334.5c-8.3.2-16.3-3.1-22.1-9-5.9-6-8.9-13.5-8.9-22.4s3-16.4,8.9-22.5c5.8-5.9,13.8-9.2,22.1-9,8.8,0,16.1,3,21.8,9s8.6,13.5,8.6,22.4-2.9,16.4-8.6,22.4-13,9-21.8,9h0ZM-831.7,1364.9c15.5,0,28-3.2,37.6-9.7,9.5-6.5,14.2-16.1,14-28.9,0-8.7-2.4-15.4-7.2-20.3-4.7-4.8-10.4-8.3-16.8-10.3-7.8-2.3-15.7-4.1-23.8-5.4-8-1.3-13.8-2.6-17.5-4.1-3.7-1.4-5.5-3.6-5.5-6.5s1.7-5.8,5.2-7.9c3.9-2.2,8.4-3.3,12.8-3.1,4.8-.1,9.6,1.1,13.8,3.4,3.9,2.2,5.9,5,5.9,8.4h29.8c0-12.3-4.6-22-13.7-28.9-9.1-7-20.9-10.4-35.3-10.4-8.6-.1-17.2,1.5-25.2,4.7-7,2.7-13.1,7.2-17.9,13-4.3,5.2-6.6,11.8-6.6,18.6,0,9,2.3,15.9,6.8,20.8,4.4,4.8,10,8.3,16.2,10.3,7.7,2.3,15.6,4.2,23.5,5.4,8.5,1.4,14.6,2.9,18.5,4.3s5.8,3.9,5.8,7.4-1.7,6.1-5.2,8.3c-3.4,2.2-8.3,3.2-14.5,3.2s-12-1.2-16.2-3.6c-4.2-2.4-6.3-5.5-6.4-9.4h-29.8c0,8.7,2.4,16.1,7.1,22.2,4.9,6.3,11.4,11.1,18.8,13.9,8.2,3.2,16.9,4.8,25.7,4.7h0ZM-705.7,1273.5v-30.5h-21.6v-47.8h-31.1v47.8h-17.8v30.5h17.8v32.9c0,19.3,4.8,33.7,14.3,43.2,9.5,9.5,22.4,14.2,38.5,14.2v-30.5c-7.7,0-13.2-2.1-16.6-6.2s-5-11-5-20.6v-32.8h21.6-.1ZM-697.3,1303.3c0,10.9,2.8,21.6,8.3,31,5.4,9.3,13.1,17,22.4,22.4,9.5,5.5,20.2,8.4,31.2,8.3,12.1,0,24-3.5,34.1-10.3,10-6.6,17.9-15.9,22.8-26.9l-37.2-.2c-2.6,2.1-5.5,3.8-8.5,5-3.9,1.4-8,2.1-12.1,1.9-7,0-13-1.7-17.9-5.2-4.8-3.3-8.2-8.3-9.5-14h89c.8-4.9,1.2-9.9,1-14.9-.3-12.2-3.6-22.7-9.7-31.7-5.9-8.7-14-15.8-23.4-20.5-9.1-4.6-19.3-7.1-29.5-7.1-10.9,0-21.6,2.9-30.8,8.5-18.8,11.4-30.2,31.7-30.1,53.6h0ZM-663.7,1290.3c2.3-5.5,6.1-10.2,11-13.7,5.1-3.4,11.1-5.2,17.3-5,12.3.1,23.4,7.4,28.3,18.7h-56.6ZM-560.5,1363h31.2v-63.1c0-9.3,1.7-16.1,5-20.4,3.3-4.3,8.5-6.5,15.4-6.5h1.2v-30.5h-1.4c-15.3,0-27.7,4.8-37.2,14.4-9.5,9.6-14.2,23.9-14.2,43v63.1Z"/>
  <g id="Capa_2-25" data-name="Capa_2-2">
    <g id="Capa_1_Imagen5" data-name="Capa_1_Imagen">
      <path class="st4" d="M-1694,1675.5v-36.7c0-61.2-24.5-85.6-85.7-85.6h-73.4c-61.2,0-85.6,24.5-85.6,85.6v73.4c0,61.2,24.5,85.6,85.6,85.6h36.7"/>
      <path class="st3" d="M-1706.8,1747l-19.9,6.7c-5.6,1.8-9.9,6.2-11.7,11.8l-6.7,19.9c-5.8,17.2-30,16.9-35.4-.4l-22.6-72.8c-4.4-14.4,8.9-27.9,23.2-23.4l72.9,22.7c17.1,5.4,17.4,29.7.2,35.5Z"/>
    </g>
  </g>
  <path id="sitemaster4" data-name="sitemaster" class="st6" d="M-1539.7,1742.9c15.5,0,28-3.2,37.6-9.7,9.5-6.5,14.2-16.1,14-28.9,0-8.7-2.4-15.4-7.2-20.3-4.7-4.8-10.4-8.3-16.8-10.3-7.8-2.3-15.7-4.1-23.8-5.4-8-1.3-13.8-2.6-17.5-4.1s-5.5-3.6-5.5-6.5,1.7-5.8,5.2-7.9c3.9-2.2,8.4-3.3,12.8-3.1,4.8-.1,9.6,1,13.8,3.4,3.9,2.2,5.9,5,5.9,8.4h29.8c0-12.3-4.6-22-13.7-28.9-9.1-7-20.9-10.4-35.3-10.4-8.6-.1-17.2,1.5-25.2,4.7-7,2.7-13.1,7.2-17.9,13-4.3,5.2-6.6,11.8-6.6,18.6,0,9,2.3,15.9,6.8,20.8,4.4,4.8,10,8.3,16.2,10.3,7.7,2.3,15.6,4.1,23.5,5.4,8.5,1.4,14.6,2.9,18.5,4.3,3.8,1.4,5.8,3.9,5.8,7.4,0,3.3-1.7,6.1-5.2,8.3-3.4,2.2-8.3,3.3-14.5,3.2-6.6,0-12-1.2-16.2-3.6-4.2-2.4-6.4-5.5-6.4-9.4h-29.8c0,8.7,2.4,16.1,7.1,22.2,4.9,6.3,11.4,11.1,18.8,13.9,8.2,3.2,16.9,4.8,25.7,4.7h0ZM-1457.4,1608.3c4.9,0,9.7-1.9,13.1-5.4,3.6-3.5,5.5-8.3,5.4-13.3,0-10.2-8.2-18.5-18.4-18.5h0c-5,0-9.8,1.9-13.3,5.5-3.5,3.4-5.5,8.1-5.4,13-.2,10.2,8,18.6,18.1,18.7,0,0,0,0,0,0h.6ZM-1473,1741h31.2v-120h-31.2v120ZM-1362.1,1651.5v-30.5h-21.6v-47.8h-31.2v47.8h-17.8v30.5h17.8v32.9c0,19.3,4.8,33.7,14.3,43.2,9.5,9.5,22.4,14.2,38.5,14.2v-30.5c-7.7,0-13.2-2.1-16.6-6.2s-5-11-5-20.6v-32.8h21.6ZM-1353.7,1681.3c0,10.9,2.8,21.6,8.3,31,5.4,9.3,13.1,17,22.4,22.4,9.5,5.5,20.2,8.4,31.2,8.3,12.1,0,24-3.5,34.1-10.3,10-6.6,17.9-15.9,22.8-26.9l-37.2-.2c-2.6,2.1-5.5,3.8-8.5,5-3.9,1.4-8,2.1-12.1,1.9-7,0-13-1.7-17.9-5.2-4.8-3.3-8.2-8.3-9.5-14h89c.8-4.9,1.2-9.9,1-14.9-.3-12.2-3.6-22.7-9.7-31.7-5.9-8.7-14-15.8-23.4-20.5-9.1-4.6-19.3-7.1-29.5-7.1-10.9,0-21.6,2.9-30.8,8.5-18.8,11.4-30.2,31.7-30.1,53.6h0ZM-1320.1,1668.3c2.3-5.5,6.1-10.2,11-13.7,5.1-3.4,11.1-5.2,17.3-5,12.3,0,23.4,7.4,28.3,18.7h-56.6ZM-1086.1,1619.1c-7.5,0-15,1.3-22,4.2-6.4,2.7-12.1,6.9-16.4,12.4-4.3-5.4-10-9.7-16.4-12.4-7-2.9-14.5-4.3-22-4.2-16.2,0-29.2,5-39.1,14.9-9.9,9.9-14.9,24.6-14.9,43.9v63.1h31.2v-63.1c0-9.6,1.9-16.7,5.6-21.4,3.8-4.6,9.5-7,17.2-7,7.8,0,13.6,2.3,17.3,7,3.7,4.7,5.5,11.8,5.5,21.4v63.1h31.2v-63.1c0-9.6,1.9-16.7,5.6-21.4,3.8-4.6,9.5-7,17.2-7,7.8,0,13.6,2.3,17.3,7,3.7,4.7,5.5,11.8,5.5,21.4v63.1h31.2v-63.1c0-19.3-5-34-14.9-43.9-9.9-9.9-23-14.9-39.1-14.9h0ZM-957,1742.9c6.6,0,13.1-1.4,19-4.3,5.9-2.9,9.8-6.3,11.5-10.3v12.7h31.2v-60c-.1-34.1-27.8-61.7-61.9-61.6-34.1.1-61.7,27.8-61.6,61.9,0,22,11.8,42.3,30.8,53.3,9.4,5.5,20.1,8.4,31,8.3h0ZM-956.7,1712.5c-8.3.2-16.3-3.1-22.1-9-5.9-6-8.9-13.5-8.9-22.4s3-16.4,8.9-22.5c5.8-5.9,13.8-9.2,22.1-9,8.8,0,16.1,3,21.8,9s8.6,13.5,8.6,22.4-2.9,16.4-8.6,22.4-13,9-21.8,9h0ZM-831.7,1742.9c15.5,0,28-3.2,37.6-9.7,9.5-6.5,14.2-16.1,14-28.9,0-8.7-2.4-15.4-7.2-20.3-4.7-4.8-10.4-8.3-16.8-10.3-7.8-2.3-15.7-4.1-23.8-5.4-8-1.3-13.8-2.6-17.5-4.1-3.7-1.4-5.5-3.6-5.5-6.5s1.7-5.8,5.2-7.9c3.9-2.2,8.4-3.3,12.8-3.1,4.8-.1,9.6,1.1,13.8,3.4,3.9,2.2,5.9,5,5.9,8.4h29.8c0-12.3-4.6-22-13.7-28.9-9.1-7-20.9-10.4-35.3-10.4-8.6-.1-17.2,1.5-25.2,4.7-7,2.7-13.1,7.2-17.9,13-4.3,5.2-6.6,11.8-6.6,18.6,0,9,2.3,15.9,6.8,20.8,4.4,4.8,10,8.3,16.2,10.3,7.7,2.3,15.6,4.2,23.5,5.4,8.5,1.4,14.6,2.9,18.5,4.3s5.8,3.9,5.8,7.4-1.7,6.1-5.2,8.3c-3.4,2.2-8.3,3.2-14.5,3.2s-12-1.2-16.2-3.6c-4.2-2.4-6.3-5.5-6.4-9.4h-29.8c0,8.7,2.4,16.1,7.1,22.2,4.9,6.3,11.4,11.1,18.8,13.9,8.2,3.2,16.9,4.8,25.7,4.7h0ZM-705.7,1651.5v-30.5h-21.6v-47.8h-31.1v47.8h-17.8v30.5h17.8v32.9c0,19.3,4.8,33.7,14.3,43.2,9.5,9.5,22.4,14.2,38.5,14.2v-30.5c-7.7,0-13.2-2.1-16.6-6.2s-5-11-5-20.6v-32.8h21.6-.1ZM-697.3,1681.3c0,10.9,2.8,21.6,8.3,31,5.4,9.3,13.1,17,22.4,22.4,9.5,5.5,20.2,8.4,31.2,8.3,12.1,0,24-3.5,34.1-10.3,10-6.6,17.9-15.9,22.8-26.9l-37.2-.2c-2.6,2.1-5.5,3.8-8.5,5-3.9,1.4-8,2.1-12.1,1.9-7,0-13-1.7-17.9-5.2-4.8-3.3-8.2-8.3-9.5-14h89c.8-4.9,1.2-9.9,1-14.9-.3-12.2-3.6-22.7-9.7-31.7-5.9-8.7-14-15.8-23.4-20.5-9.1-4.6-19.3-7.1-29.5-7.1-10.9,0-21.6,2.9-30.8,8.5-18.8,11.4-30.2,31.7-30.1,53.6h0ZM-663.7,1668.3c2.3-5.5,6.1-10.2,11-13.7,5.1-3.4,11.1-5.2,17.3-5,12.3.1,23.4,7.4,28.3,18.7h-56.6ZM-560.5,1741h31.2v-63.1c0-9.3,1.7-16.1,5-20.4,3.3-4.3,8.5-6.5,15.4-6.5h1.2v-30.5h-1.4c-15.3,0-27.7,4.8-37.2,14.4-9.5,9.6-14.2,23.9-14.2,43v63.1Z"/>
  <g id="Capa_2-26" data-name="Capa_2-2">
    <g id="Capa_1_Imagen6" data-name="Capa_1_Imagen">
      <path class="st2" d="M686.2,883.8v-36.7c0-61.2-24.5-85.6-85.7-85.6h-73.4c-61.2,0-85.6,24.5-85.6,85.6v73.4c0,61.2,24.5,85.6,85.6,85.6h36.7"/>
      <path class="st5" d="M673.5,955.3l-19.9,6.7c-5.6,1.8-9.9,6.2-11.7,11.8l-6.7,19.9c-5.8,17.2-30,16.9-35.4-.4l-22.6-72.8c-4.4-14.4,8.9-27.9,23.2-23.4l72.9,22.7c17.1,5.4,17.4,29.7.2,35.5Z"/>
    </g>
  </g>
  <path id="sitemaster5" data-name="sitemaster" class="st7" d="M840.6,951.3c15.5,0,28-3.2,37.6-9.7,9.5-6.5,14.2-16.1,14-28.9,0-8.7-2.4-15.4-7.2-20.3-4.7-4.8-10.4-8.3-16.8-10.3-7.8-2.3-15.7-4.1-23.8-5.4-8-1.3-13.8-2.6-17.5-4.1s-5.5-3.6-5.5-6.5,1.7-5.8,5.2-7.9c3.9-2.2,8.4-3.3,12.8-3.1,4.8-.1,9.6,1,13.8,3.4,3.9,2.2,5.9,5,5.9,8.4h29.8c0-12.3-4.6-22-13.7-28.9-9.1-7-20.9-10.4-35.3-10.4-8.6-.1-17.2,1.5-25.2,4.7-7,2.7-13.1,7.2-17.9,13-4.3,5.2-6.6,11.8-6.6,18.6,0,9,2.3,15.9,6.8,20.8,4.4,4.8,10,8.3,16.2,10.3,7.7,2.3,15.6,4.1,23.5,5.4,8.5,1.4,14.6,2.9,18.5,4.3,3.8,1.4,5.8,3.9,5.8,7.4,0,3.3-1.7,6.1-5.2,8.3-3.4,2.2-8.3,3.3-14.5,3.2-6.6,0-12-1.2-16.2-3.6-4.2-2.4-6.4-5.5-6.4-9.4h-29.8c0,8.7,2.4,16.1,7.1,22.2,4.9,6.3,11.4,11.1,18.8,13.9,8.2,3.2,16.9,4.8,25.7,4.7h0ZM922.9,816.6c4.9,0,9.7-1.9,13.1-5.4,3.6-3.5,5.5-8.3,5.4-13.3,0-10.2-8.2-18.5-18.4-18.5h0c-5,0-9.8,1.9-13.3,5.5-3.5,3.4-5.5,8.1-5.4,13-.2,10.2,8,18.6,18.1,18.7,0,0,0,0,0,0h.6ZM907.3,949.3h31.2v-120h-31.2v120ZM1018.2,859.9v-30.5h-21.6v-47.8h-31.2v47.8h-17.8v30.5h17.8v32.9c0,19.3,4.8,33.7,14.3,43.2,9.5,9.5,22.4,14.2,38.5,14.2v-30.5c-7.7,0-13.2-2.1-16.6-6.2s-5-11-5-20.6v-32.8h21.6ZM1026.6,889.6c0,10.9,2.8,21.6,8.3,31,5.4,9.3,13.1,17,22.4,22.4,9.5,5.5,20.2,8.4,31.2,8.3,12.1,0,24-3.5,34.1-10.3,10-6.6,17.9-15.9,22.8-26.9l-37.2-.2c-2.6,2.1-5.5,3.8-8.5,5-3.9,1.4-8,2.1-12.1,1.9-7,0-13-1.7-17.9-5.2-4.8-3.3-8.2-8.3-9.5-14h89c.8-4.9,1.2-9.9,1-14.9-.3-12.2-3.6-22.7-9.7-31.7-5.9-8.7-14-15.8-23.4-20.5-9.1-4.6-19.3-7.1-29.5-7.1-10.9,0-21.6,2.9-30.8,8.5-18.8,11.4-30.2,31.7-30.1,53.6h0ZM1060.2,876.6c2.3-5.5,6.1-10.2,11-13.7,5.1-3.4,11.1-5.2,17.3-5,12.3,0,23.4,7.4,28.3,18.7h-56.6ZM1294.2,827.4c-7.5,0-15,1.3-22,4.2-6.4,2.7-12.1,6.9-16.4,12.4-4.3-5.4-10-9.7-16.4-12.4-7-2.9-14.5-4.3-22-4.2-16.2,0-29.2,5-39.1,14.9-9.9,9.9-14.9,24.6-14.9,43.9v63.1h31.2v-63.1c0-9.6,1.9-16.7,5.6-21.4,3.8-4.6,9.5-7,17.2-7,7.8,0,13.6,2.3,17.3,7,3.7,4.7,5.5,11.8,5.5,21.4v63.1h31.2v-63.1c0-9.6,1.9-16.7,5.6-21.4,3.8-4.6,9.5-7,17.2-7,7.8,0,13.6,2.3,17.3,7,3.7,4.7,5.5,11.8,5.5,21.4v63.1h31.2v-63.1c0-19.3-5-34-14.9-43.9-9.9-9.9-23-14.9-39.1-14.9h0ZM1423.3,951.3c6.6,0,13.1-1.4,19-4.3,5.9-2.9,9.8-6.3,11.5-10.3v12.7h31.2v-60c-.1-34.1-27.8-61.7-61.9-61.6-34.1.1-61.7,27.8-61.6,61.9,0,22,11.8,42.3,30.8,53.3,9.4,5.5,20.1,8.4,31,8.3h0ZM1423.5,920.8c-8.3.2-16.3-3.1-22.1-9-5.9-6-8.9-13.5-8.9-22.4s3-16.4,8.9-22.5c5.8-5.9,13.8-9.2,22.1-9,8.8,0,16.1,3,21.8,9s8.6,13.5,8.6,22.4-2.9,16.4-8.6,22.4-13,9-21.8,9h0ZM1548.5,951.3c15.5,0,28-3.2,37.6-9.7,9.5-6.5,14.2-16.1,14-28.9,0-8.7-2.4-15.4-7.2-20.3-4.7-4.8-10.4-8.3-16.8-10.3-7.8-2.3-15.7-4.1-23.8-5.4-8-1.3-13.8-2.6-17.5-4.1-3.7-1.4-5.5-3.6-5.5-6.5s1.7-5.8,5.2-7.9c3.9-2.2,8.4-3.3,12.8-3.1,4.8-.1,9.6,1.1,13.8,3.4,3.9,2.2,5.9,5,5.9,8.4h29.8c0-12.3-4.6-22-13.7-28.9-9.1-7-20.9-10.4-35.3-10.4-8.6-.1-17.2,1.5-25.2,4.7-7,2.7-13.1,7.2-17.9,13-4.3,5.2-6.6,11.8-6.6,18.6,0,9,2.3,15.9,6.8,20.8,4.4,4.8,10,8.3,16.2,10.3,7.7,2.3,15.6,4.2,23.5,5.4,8.5,1.4,14.6,2.9,18.5,4.3s5.8,3.9,5.8,7.4-1.7,6.1-5.2,8.3c-3.4,2.2-8.3,3.2-14.5,3.2s-12-1.2-16.2-3.6c-4.2-2.4-6.3-5.5-6.4-9.4h-29.8c0,8.7,2.4,16.1,7.1,22.2,4.9,6.3,11.4,11.1,18.8,13.9,8.2,3.2,16.9,4.8,25.7,4.7h0ZM1674.5,859.8v-30.5h-21.6v-47.8h-31.1v47.8h-17.8v30.5h17.8v32.9c0,19.3,4.8,33.7,14.3,43.2,9.5,9.5,22.4,14.2,38.5,14.2v-30.5c-7.7,0-13.2-2.1-16.6-6.2s-5-11-5-20.6v-32.8h21.6-.1ZM1682.9,889.6c0,10.9,2.8,21.6,8.3,31,5.4,9.3,13.1,17,22.4,22.4,9.5,5.5,20.2,8.4,31.2,8.3,12.1,0,24-3.5,34.1-10.3,10-6.6,17.9-15.9,22.8-26.9l-37.2-.2c-2.6,2.1-5.5,3.8-8.5,5-3.9,1.4-8,2.1-12.1,1.9-7,0-13-1.7-17.9-5.2-4.8-3.3-8.2-8.3-9.5-14h89c.8-4.9,1.2-9.9,1-14.9-.3-12.2-3.6-22.7-9.7-31.7-5.9-8.7-14-15.8-23.4-20.5-9.1-4.6-19.3-7.1-29.5-7.1-10.9,0-21.6,2.9-30.8,8.5-18.8,11.4-30.2,31.7-30.1,53.6h0ZM1716.5,876.6c2.3-5.5,6.1-10.2,11-13.7,5.1-3.4,11.1-5.2,17.3-5,12.3.1,23.4,7.4,28.3,18.7h-56.6ZM1819.8,949.3h31.2v-63.1c0-9.3,1.7-16.1,5-20.4,3.3-4.3,8.5-6.5,15.4-6.5h1.2v-30.5h-1.4c-15.3,0-27.7,4.8-37.2,14.4-9.5,9.6-14.2,23.9-14.2,43v63.1Z"/>
  <g id="Capa_2-27" data-name="Capa_2-2">
    <g id="Capa_1_Imagen7" data-name="Capa_1_Imagen">
      <path class="st2" d="M679.4,1273.8v-36.7c0-61.2-24.5-85.6-85.7-85.6h-73.4c-61.2,0-85.6,24.5-85.6,85.6v73.4c0,61.2,24.5,85.6,85.6,85.6h36.7"/>
      <path class="st5" d="M666.7,1345.3l-19.9,6.7c-5.6,1.8-9.9,6.2-11.7,11.8l-6.7,19.9c-5.8,17.2-30,16.9-35.4-.4l-22.6-72.8c-4.4-14.4,8.9-27.9,23.2-23.4l72.9,22.7c17.1,5.4,17.4,29.7.2,35.5Z"/>
    </g>
  </g>
  <path id="sitemaster6" data-name="sitemaster" class="st8" d="M833.8,1341.3c15.5,0,28-3.2,37.6-9.7,9.5-6.5,14.2-16.1,14-28.9,0-8.7-2.4-15.4-7.2-20.3-4.7-4.8-10.4-8.3-16.8-10.3-7.8-2.3-15.7-4.1-23.8-5.4-8-1.3-13.8-2.6-17.5-4.1s-5.5-3.6-5.5-6.5,1.7-5.8,5.2-7.9c3.9-2.2,8.4-3.3,12.8-3.1,4.8-.1,9.6,1,13.8,3.4,3.9,2.2,5.9,5,5.9,8.4h29.8c0-12.3-4.6-22-13.7-28.9-9.1-7-20.9-10.4-35.3-10.4-8.6-.1-17.2,1.5-25.2,4.7-7,2.7-13.1,7.2-17.9,13-4.3,5.2-6.6,11.8-6.6,18.6,0,9,2.3,15.9,6.8,20.8,4.4,4.8,10,8.3,16.2,10.3,7.7,2.3,15.6,4.1,23.5,5.4,8.5,1.4,14.6,2.9,18.5,4.3,3.8,1.4,5.8,3.9,5.8,7.4,0,3.3-1.7,6.1-5.2,8.3-3.4,2.2-8.3,3.3-14.5,3.2-6.6,0-12-1.2-16.2-3.6-4.2-2.4-6.4-5.5-6.4-9.4h-29.8c0,8.7,2.4,16.1,7.1,22.2,4.9,6.3,11.4,11.1,18.8,13.9,8.2,3.2,16.9,4.8,25.7,4.7h0ZM916.1,1206.6c4.9,0,9.7-1.9,13.1-5.4,3.6-3.5,5.5-8.3,5.4-13.3,0-10.2-8.2-18.5-18.4-18.5h0c-5,0-9.8,1.9-13.3,5.5-3.5,3.4-5.5,8.1-5.4,13-.2,10.2,8,18.6,18.1,18.7,0,0,0,0,0,0h.6ZM900.5,1339.3h31.2v-120h-31.2v120ZM1011.4,1249.9v-30.5h-21.6v-47.8h-31.2v47.8h-17.8v30.5h17.8v32.9c0,19.3,4.8,33.7,14.3,43.2,9.5,9.5,22.4,14.2,38.5,14.2v-30.5c-7.7,0-13.2-2.1-16.6-6.2s-5-11-5-20.6v-32.8h21.6ZM1019.8,1279.6c0,10.9,2.8,21.6,8.3,31,5.4,9.3,13.1,17,22.4,22.4,9.5,5.5,20.2,8.4,31.2,8.3,12.1,0,24-3.5,34.1-10.3,10-6.6,17.9-15.9,22.8-26.9l-37.2-.2c-2.6,2.1-5.5,3.8-8.5,5-3.9,1.4-8,2.1-12.1,1.9-7,0-13-1.7-17.9-5.2-4.8-3.3-8.2-8.3-9.5-14h89c.8-4.9,1.2-9.9,1-14.9-.3-12.2-3.6-22.7-9.7-31.7-5.9-8.7-14-15.8-23.4-20.5-9.1-4.6-19.3-7.1-29.5-7.1-10.9,0-21.6,2.9-30.8,8.5-18.8,11.4-30.2,31.7-30.1,53.6h0ZM1053.4,1266.6c2.3-5.5,6.1-10.2,11-13.7,5.1-3.4,11.1-5.2,17.3-5,12.3,0,23.4,7.4,28.3,18.7h-56.6ZM1287.4,1217.4c-7.5,0-15,1.3-22,4.2-6.4,2.7-12.1,6.9-16.4,12.4-4.3-5.4-10-9.7-16.4-12.4-7-2.9-14.5-4.3-22-4.2-16.2,0-29.2,5-39.1,14.9-9.9,9.9-14.9,24.6-14.9,43.9v63.1h31.2v-63.1c0-9.6,1.9-16.7,5.6-21.4,3.8-4.6,9.5-7,17.2-7,7.8,0,13.6,2.3,17.3,7,3.7,4.7,5.5,11.8,5.5,21.4v63.1h31.2v-63.1c0-9.6,1.9-16.7,5.6-21.4,3.8-4.6,9.5-7,17.2-7,7.8,0,13.6,2.3,17.3,7,3.7,4.7,5.5,11.8,5.5,21.4v63.1h31.2v-63.1c0-19.3-5-34-14.9-43.9-9.9-9.9-23-14.9-39.1-14.9h0ZM1416.5,1341.3c6.6,0,13.1-1.4,19-4.3,5.9-2.9,9.8-6.3,11.5-10.3v12.7h31.2v-60c-.1-34.1-27.8-61.7-61.9-61.6-34.1.1-61.7,27.8-61.6,61.9,0,22,11.8,42.3,30.8,53.3,9.4,5.5,20.1,8.4,31,8.3h0ZM1416.7,1310.8c-8.3.2-16.3-3.1-22.1-9-5.9-6-8.9-13.5-8.9-22.4s3-16.4,8.9-22.5c5.8-5.9,13.8-9.2,22.1-9,8.8,0,16.1,3,21.8,9s8.6,13.5,8.6,22.4-2.9,16.4-8.6,22.4-13,9-21.8,9h0ZM1541.7,1341.3c15.5,0,28-3.2,37.6-9.7,9.5-6.5,14.2-16.1,14-28.9,0-8.7-2.4-15.4-7.2-20.3-4.7-4.8-10.4-8.3-16.8-10.3-7.8-2.3-15.7-4.1-23.8-5.4-8-1.3-13.8-2.6-17.5-4.1-3.7-1.4-5.5-3.6-5.5-6.5s1.7-5.8,5.2-7.9c3.9-2.2,8.4-3.3,12.8-3.1,4.8-.1,9.6,1.1,13.8,3.4,3.9,2.2,5.9,5,5.9,8.4h29.8c0-12.3-4.6-22-13.7-28.9-9.1-7-20.9-10.4-35.3-10.4-8.6-.1-17.2,1.5-25.2,4.7-7,2.7-13.1,7.2-17.9,13-4.3,5.2-6.6,11.8-6.6,18.6,0,9,2.3,15.9,6.8,20.8,4.4,4.8,10,8.3,16.2,10.3,7.7,2.3,15.6,4.2,23.5,5.4,8.5,1.4,14.6,2.9,18.5,4.3s5.8,3.9,5.8,7.4-1.7,6.1-5.2,8.3c-3.4,2.2-8.3,3.2-14.5,3.2s-12-1.2-16.2-3.6c-4.2-2.4-6.3-5.5-6.4-9.4h-29.8c0,8.7,2.4,16.1,7.1,22.2,4.9,6.3,11.4,11.1,18.8,13.9,8.2,3.2,16.9,4.8,25.7,4.7h0ZM1667.7,1249.8v-30.5h-21.6v-47.8h-31.1v47.8h-17.8v30.5h17.8v32.9c0,19.3,4.8,33.7,14.3,43.2,9.5,9.5,22.4,14.2,38.5,14.2v-30.5c-7.7,0-13.2-2.1-16.6-6.2s-5-11-5-20.6v-32.8h21.6-.1ZM1676.1,1279.6c0,10.9,2.8,21.6,8.3,31,5.4,9.3,13.1,17,22.4,22.4,9.5,5.5,20.2,8.4,31.2,8.3,12.1,0,24-3.5,34.1-10.3,10-6.6,17.9-15.9,22.8-26.9l-37.2-.2c-2.6,2.1-5.5,3.8-8.5,5-3.9,1.4-8,2.1-12.1,1.9-7,0-13-1.7-17.9-5.2-4.8-3.3-8.2-8.3-9.5-14h89c.8-4.9,1.2-9.9,1-14.9-.3-12.2-3.6-22.7-9.7-31.7-5.9-8.7-14-15.8-23.4-20.5-9.1-4.6-19.3-7.1-29.5-7.1-10.9,0-21.6,2.9-30.8,8.5-18.8,11.4-30.2,31.7-30.1,53.6h0ZM1709.7,1266.6c2.3-5.5,6.1-10.2,11-13.7,5.1-3.4,11.1-5.2,17.3-5,12.3.1,23.4,7.4,28.3,18.7h-56.6ZM1813,1339.3h31.2v-63.1c0-9.3,1.7-16.1,5-20.4,3.3-4.3,8.5-6.5,15.4-6.5h1.2v-30.5h-1.4c-15.3,0-27.7,4.8-37.2,14.4-9.5,9.6-14.2,23.9-14.2,43v63.1Z"/>
  <g id="Capa_2-28" data-name="Capa_2-2">
    <g id="Capa_1_Imagen8" data-name="Capa_1_Imagen">
      <path class="st2" d="M679.4,1651.8v-36.7c0-61.2-24.5-85.6-85.7-85.6h-73.4c-61.2,0-85.6,24.5-85.6,85.6v73.4c0,61.2,24.5,85.6,85.6,85.6h36.7"/>
      <path class="st5" d="M666.7,1723.3l-19.9,6.7c-5.6,1.8-9.9,6.2-11.7,11.8l-6.7,19.9c-5.8,17.2-30,16.9-35.4-.4l-22.6-72.8c-4.4-14.4,8.9-27.9,23.2-23.4l72.9,22.7c17.1,5.4,17.4,29.7.2,35.5Z"/>
    </g>
  </g>
  <path id="sitemaster7" data-name="sitemaster" class="st6" d="M833.8,1719.3c15.5,0,28-3.2,37.6-9.7,9.5-6.5,14.2-16.1,14-28.9,0-8.7-2.4-15.4-7.2-20.3-4.7-4.8-10.4-8.3-16.8-10.3-7.8-2.3-15.7-4.1-23.8-5.4-8-1.3-13.8-2.6-17.5-4.1s-5.5-3.6-5.5-6.5,1.7-5.8,5.2-7.9c3.9-2.2,8.4-3.3,12.8-3.1,4.8-.1,9.6,1,13.8,3.4,3.9,2.2,5.9,5,5.9,8.4h29.8c0-12.3-4.6-22-13.7-28.9-9.1-7-20.9-10.4-35.3-10.4-8.6-.1-17.2,1.5-25.2,4.7-7,2.7-13.1,7.2-17.9,13-4.3,5.2-6.6,11.8-6.6,18.6,0,9,2.3,15.9,6.8,20.8,4.4,4.8,10,8.3,16.2,10.3,7.7,2.3,15.6,4.1,23.5,5.4,8.5,1.4,14.6,2.9,18.5,4.3,3.8,1.4,5.8,3.9,5.8,7.4,0,3.3-1.7,6.1-5.2,8.3-3.4,2.2-8.3,3.3-14.5,3.2-6.6,0-12-1.2-16.2-3.6-4.2-2.4-6.4-5.5-6.4-9.4h-29.8c0,8.7,2.4,16.1,7.1,22.2,4.9,6.3,11.4,11.1,18.8,13.9,8.2,3.2,16.9,4.8,25.7,4.7h0ZM916.1,1584.6c4.9,0,9.7-1.9,13.1-5.4,3.6-3.5,5.5-8.3,5.4-13.3,0-10.2-8.2-18.5-18.4-18.5h0c-5,0-9.8,1.9-13.3,5.5-3.5,3.4-5.5,8.1-5.4,13-.2,10.2,8,18.6,18.1,18.7,0,0,0,0,0,0h.6ZM900.5,1717.3h31.2v-120h-31.2v120ZM1011.4,1627.9v-30.5h-21.6v-47.8h-31.2v47.8h-17.8v30.5h17.8v32.9c0,19.3,4.8,33.7,14.3,43.2,9.5,9.5,22.4,14.2,38.5,14.2v-30.5c-7.7,0-13.2-2.1-16.6-6.2s-5-11-5-20.6v-32.8h21.6ZM1019.8,1657.6c0,10.9,2.8,21.6,8.3,31,5.4,9.3,13.1,17,22.4,22.4,9.5,5.5,20.2,8.4,31.2,8.3,12.1,0,24-3.5,34.1-10.3,10-6.6,17.9-15.9,22.8-26.9l-37.2-.2c-2.6,2.1-5.5,3.8-8.5,5-3.9,1.4-8,2.1-12.1,1.9-7,0-13-1.7-17.9-5.2-4.8-3.3-8.2-8.3-9.5-14h89c.8-4.9,1.2-9.9,1-14.9-.3-12.2-3.6-22.7-9.7-31.7-5.9-8.7-14-15.8-23.4-20.5-9.1-4.6-19.3-7.1-29.5-7.1-10.9,0-21.6,2.9-30.8,8.5-18.8,11.4-30.2,31.7-30.1,53.6h0ZM1053.4,1644.6c2.3-5.5,6.1-10.2,11-13.7,5.1-3.4,11.1-5.2,17.3-5,12.3,0,23.4,7.4,28.3,18.7h-56.6ZM1287.4,1595.4c-7.5,0-15,1.3-22,4.2-6.4,2.7-12.1,6.9-16.4,12.4-4.3-5.4-10-9.7-16.4-12.4-7-2.9-14.5-4.3-22-4.2-16.2,0-29.2,5-39.1,14.9-9.9,9.9-14.9,24.6-14.9,43.9v63.1h31.2v-63.1c0-9.6,1.9-16.7,5.6-21.4,3.8-4.6,9.5-7,17.2-7,7.8,0,13.6,2.3,17.3,7,3.7,4.7,5.5,11.8,5.5,21.4v63.1h31.2v-63.1c0-9.6,1.9-16.7,5.6-21.4,3.8-4.6,9.5-7,17.2-7,7.8,0,13.6,2.3,17.3,7,3.7,4.7,5.5,11.8,5.5,21.4v63.1h31.2v-63.1c0-19.3-5-34-14.9-43.9-9.9-9.9-23-14.9-39.1-14.9h0ZM1416.5,1719.3c6.6,0,13.1-1.4,19-4.3,5.9-2.9,9.8-6.3,11.5-10.3v12.7h31.2v-60c-.1-34.1-27.8-61.7-61.9-61.6-34.1.1-61.7,27.8-61.6,61.9,0,22,11.8,42.3,30.8,53.3,9.4,5.5,20.1,8.4,31,8.3h0ZM1416.7,1688.8c-8.3.2-16.3-3.1-22.1-9-5.9-6-8.9-13.5-8.9-22.4s3-16.4,8.9-22.5c5.8-5.9,13.8-9.2,22.1-9,8.8,0,16.1,3,21.8,9s8.6,13.5,8.6,22.4-2.9,16.4-8.6,22.4-13,9-21.8,9h0ZM1541.7,1719.3c15.5,0,28-3.2,37.6-9.7,9.5-6.5,14.2-16.1,14-28.9,0-8.7-2.4-15.4-7.2-20.3-4.7-4.8-10.4-8.3-16.8-10.3-7.8-2.3-15.7-4.1-23.8-5.4-8-1.3-13.8-2.6-17.5-4.1-3.7-1.4-5.5-3.6-5.5-6.5s1.7-5.8,5.2-7.9c3.9-2.2,8.4-3.3,12.8-3.1,4.8-.1,9.6,1.1,13.8,3.4,3.9,2.2,5.9,5,5.9,8.4h29.8c0-12.3-4.6-22-13.7-28.9-9.1-7-20.9-10.4-35.3-10.4-8.6-.1-17.2,1.5-25.2,4.7-7,2.7-13.1,7.2-17.9,13-4.3,5.2-6.6,11.8-6.6,18.6,0,9,2.3,15.9,6.8,20.8,4.4,4.8,10,8.3,16.2,10.3,7.7,2.3,15.6,4.2,23.5,5.4,8.5,1.4,14.6,2.9,18.5,4.3s5.8,3.9,5.8,7.4-1.7,6.1-5.2,8.3c-3.4,2.2-8.3,3.2-14.5,3.2s-12-1.2-16.2-3.6c-4.2-2.4-6.3-5.5-6.4-9.4h-29.8c0,8.7,2.4,16.1,7.1,22.2,4.9,6.3,11.4,11.1,18.8,13.9,8.2,3.2,16.9,4.8,25.7,4.7h0ZM1667.7,1627.8v-30.5h-21.6v-47.8h-31.1v47.8h-17.8v30.5h17.8v32.9c0,19.3,4.8,33.7,14.3,43.2,9.5,9.5,22.4,14.2,38.5,14.2v-30.5c-7.7,0-13.2-2.1-16.6-6.2s-5-11-5-20.6v-32.8h21.6-.1ZM1676.1,1657.6c0,10.9,2.8,21.6,8.3,31,5.4,9.3,13.1,17,22.4,22.4,9.5,5.5,20.2,8.4,31.2,8.3,12.1,0,24-3.5,34.1-10.3,10-6.6,17.9-15.9,22.8-26.9l-37.2-.2c-2.6,2.1-5.5,3.8-8.5,5-3.9,1.4-8,2.1-12.1,1.9-7,0-13-1.7-17.9-5.2-4.8-3.3-8.2-8.3-9.5-14h89c.8-4.9,1.2-9.9,1-14.9-.3-12.2-3.6-22.7-9.7-31.7-5.9-8.7-14-15.8-23.4-20.5-9.1-4.6-19.3-7.1-29.5-7.1-10.9,0-21.6,2.9-30.8,8.5-18.8,11.4-30.2,31.7-30.1,53.6h0ZM1709.7,1644.6c2.3-5.5,6.1-10.2,11-13.7,5.1-3.4,11.1-5.2,17.3-5,12.3.1,23.4,7.4,28.3,18.7h-56.6ZM1813,1717.3h31.2v-63.1c0-9.3,1.7-16.1,5-20.4,3.3-4.3,8.5-6.5,15.4-6.5h1.2v-30.5h-1.4c-15.3,0-27.7,4.8-37.2,14.4-9.5,9.6-14.2,23.9-14.2,43v63.1Z"/>
  <g id="Capa_2-29" data-name="Capa_2-2">
    <g id="Capa_1_Imagen9" data-name="Capa_1_Imagen">
      <path class="st0" d="M2909.1,863.8v-36.7c0-61.2-24.5-85.6-85.7-85.6h-73.4c-61.2,0-85.6,24.5-85.6,85.6v73.4c0,61.2,24.5,85.6,85.6,85.6h36.7"/>
      <path class="st1" d="M2896.4,935.2l-19.9,6.7c-5.6,1.8-9.9,6.2-11.7,11.8l-6.7,19.9c-5.8,17.2-30,16.9-35.4-.4l-22.6-72.8c-4.4-14.4,8.9-27.9,23.2-23.4l72.9,22.7c17.1,5.4,17.4,29.7.2,35.5Z"/>
    </g>
  </g>
  <path id="sitemaster8" data-name="sitemaster" class="st7" d="M3063.5,931.2c15.5,0,28-3.2,37.6-9.7,9.5-6.5,14.2-16.1,14-28.9,0-8.7-2.4-15.4-7.2-20.3-4.7-4.8-10.4-8.3-16.8-10.3-7.8-2.3-15.7-4.1-23.8-5.4-8-1.3-13.8-2.6-17.5-4.1s-5.5-3.6-5.5-6.5,1.7-5.8,5.2-7.9c3.9-2.2,8.4-3.3,12.8-3.1,4.8-.1,9.6,1,13.8,3.4,3.9,2.2,5.9,5,5.9,8.4h29.8c0-12.3-4.6-22-13.7-28.9-9.1-7-20.9-10.4-35.3-10.4-8.6-.1-17.2,1.5-25.2,4.7-7,2.7-13.1,7.2-17.9,13-4.3,5.2-6.6,11.8-6.6,18.6,0,9,2.3,15.9,6.8,20.8,4.4,4.8,10,8.3,16.2,10.3,7.7,2.3,15.6,4.1,23.5,5.4,8.5,1.4,14.6,2.9,18.5,4.3,3.8,1.4,5.8,3.9,5.8,7.4,0,3.3-1.7,6.1-5.2,8.3-3.4,2.2-8.3,3.3-14.5,3.2-6.6,0-12-1.2-16.2-3.6-4.2-2.4-6.4-5.5-6.4-9.4h-29.8c0,8.7,2.4,16.1,7.1,22.2,4.9,6.3,11.4,11.1,18.8,13.9,8.2,3.2,16.9,4.8,25.7,4.7h0ZM3145.8,796.6c4.9,0,9.7-1.9,13.1-5.4,3.6-3.5,5.5-8.3,5.4-13.3,0-10.2-8.2-18.5-18.4-18.5h0c-5,0-9.8,1.9-13.3,5.5-3.5,3.4-5.5,8.1-5.4,13-.2,10.2,8,18.6,18.1,18.7,0,0,0,0,0,0h.6ZM3130.2,929.3h31.2v-120h-31.2v120ZM3241.1,839.8v-30.5h-21.6v-47.8h-31.2v47.8h-17.8v30.5h17.8v32.9c0,19.3,4.8,33.7,14.3,43.2,9.5,9.5,22.4,14.2,38.5,14.2v-30.5c-7.7,0-13.2-2.1-16.6-6.2s-5-11-5-20.6v-32.8h21.6ZM3249.5,869.6c0,10.9,2.8,21.6,8.3,31,5.4,9.3,13.1,17,22.4,22.4,9.5,5.5,20.2,8.4,31.2,8.3,12.1,0,24-3.5,34.1-10.3,10-6.6,17.9-15.9,22.8-26.9l-37.2-.2c-2.6,2.1-5.5,3.8-8.5,5-3.9,1.4-8,2.1-12.1,1.9-7,0-13-1.7-17.9-5.2-4.8-3.3-8.2-8.3-9.5-14h89c.8-4.9,1.2-9.9,1-14.9-.3-12.2-3.6-22.7-9.7-31.7-5.9-8.7-14-15.8-23.4-20.5-9.1-4.6-19.3-7.1-29.5-7.1-10.9,0-21.6,2.9-30.8,8.5-18.8,11.4-30.2,31.7-30.1,53.6h0ZM3283.1,856.6c2.3-5.5,6.1-10.2,11-13.7,5.1-3.4,11.1-5.2,17.3-5,12.3,0,23.4,7.4,28.3,18.7h-56.6ZM3517.1,807.4c-7.5,0-15,1.3-22,4.2-6.4,2.7-12.1,6.9-16.4,12.4-4.3-5.4-10-9.7-16.4-12.4-7-2.9-14.5-4.3-22-4.2-16.2,0-29.2,5-39.1,14.9-9.9,9.9-14.9,24.6-14.9,43.9v63.1h31.2v-63.1c0-9.6,1.9-16.7,5.6-21.4,3.8-4.6,9.5-7,17.2-7,7.8,0,13.6,2.3,17.3,7,3.7,4.7,5.5,11.8,5.5,21.4v63.1h31.2v-63.1c0-9.6,1.9-16.7,5.6-21.4,3.8-4.6,9.5-7,17.2-7,7.8,0,13.6,2.3,17.3,7,3.7,4.7,5.5,11.8,5.5,21.4v63.1h31.2v-63.1c0-19.3-5-34-14.9-43.9-9.9-9.9-23-14.9-39.1-14.9h0ZM3646.2,931.2c6.6,0,13.1-1.4,19-4.3,5.9-2.9,9.8-6.3,11.5-10.3v12.7h31.2v-60c-.1-34.1-27.8-61.7-61.9-61.6-34.1.1-61.7,27.8-61.6,61.9,0,22,11.8,42.3,30.8,53.3,9.4,5.5,20.1,8.4,31,8.3h0ZM3646.5,900.7c-8.3.2-16.3-3.1-22.1-9-5.9-6-8.9-13.5-8.9-22.4s3-16.4,8.9-22.5c5.8-5.9,13.8-9.2,22.1-9,8.8,0,16.1,3,21.8,9s8.6,13.5,8.6,22.4-2.9,16.4-8.6,22.4-13,9-21.8,9h0ZM3771.5,931.2c15.5,0,28-3.2,37.6-9.7,9.5-6.5,14.2-16.1,14-28.9,0-8.7-2.4-15.4-7.2-20.3-4.7-4.8-10.4-8.3-16.8-10.3-7.8-2.3-15.7-4.1-23.8-5.4-8-1.3-13.8-2.6-17.5-4.1-3.7-1.4-5.5-3.6-5.5-6.5s1.7-5.8,5.2-7.9c3.9-2.2,8.4-3.3,12.8-3.1,4.8-.1,9.6,1.1,13.8,3.4,3.9,2.2,5.9,5,5.9,8.4h29.8c0-12.3-4.6-22-13.7-28.9-9.1-7-20.9-10.4-35.3-10.4-8.6-.1-17.2,1.5-25.2,4.7-7,2.7-13.1,7.2-17.9,13-4.3,5.2-6.6,11.8-6.6,18.6,0,9,2.3,15.9,6.8,20.8,4.4,4.8,10,8.3,16.2,10.3,7.7,2.3,15.6,4.2,23.5,5.4,8.5,1.4,14.6,2.9,18.5,4.3s5.8,3.9,5.8,7.4-1.7,6.1-5.2,8.3c-3.4,2.2-8.3,3.2-14.5,3.2s-12-1.2-16.2-3.6c-4.2-2.4-6.3-5.5-6.4-9.4h-29.8c0,8.7,2.4,16.1,7.1,22.2,4.9,6.3,11.4,11.1,18.8,13.9,8.2,3.2,16.9,4.8,25.7,4.7h0ZM3897.5,839.8v-30.5h-21.6v-47.8h-31.1v47.8h-17.8v30.5h17.8v32.9c0,19.3,4.8,33.7,14.3,43.2,9.5,9.5,22.4,14.2,38.5,14.2v-30.5c-7.7,0-13.2-2.1-16.6-6.2s-5-11-5-20.6v-32.8h21.6-.1ZM3905.9,869.5c0,10.9,2.8,21.6,8.3,31,5.4,9.3,13.1,17,22.4,22.4,9.5,5.5,20.2,8.4,31.2,8.3,12.1,0,24-3.5,34.1-10.3,10-6.6,17.9-15.9,22.8-26.9l-37.2-.2c-2.6,2.1-5.5,3.8-8.5,5-3.9,1.4-8,2.1-12.1,1.9-7,0-13-1.7-17.9-5.2-4.8-3.3-8.2-8.3-9.5-14h89c.8-4.9,1.2-9.9,1-14.9-.3-12.2-3.6-22.7-9.7-31.7-5.9-8.7-14-15.8-23.4-20.5-9.1-4.6-19.3-7.1-29.5-7.1-10.9,0-21.6,2.9-30.8,8.5-18.8,11.4-30.2,31.7-30.1,53.6h0ZM3939.5,856.5c2.3-5.5,6.1-10.2,11-13.7,5.1-3.4,11.1-5.2,17.3-5,12.3.1,23.4,7.4,28.3,18.7h-56.6ZM4042.7,929.3h31.2v-63.1c0-9.3,1.7-16.1,5-20.4,3.3-4.3,8.5-6.5,15.4-6.5h1.2v-30.5h-1.4c-15.3,0-27.7,4.8-37.2,14.4-9.5,9.6-14.2,23.9-14.2,43v63.1Z"/>
  <g id="Capa_2-210" data-name="Capa_2-2">
    <g id="Capa_1_Imagen10" data-name="Capa_1_Imagen">
      <path class="st0" d="M2902.3,1253.8v-36.7c0-61.2-24.5-85.6-85.7-85.6h-73.4c-61.2,0-85.6,24.5-85.6,85.6v73.4c0,61.2,24.5,85.6,85.6,85.6h36.7"/>
      <path class="st1" d="M2889.6,1325.2l-19.9,6.7c-5.6,1.8-9.9,6.2-11.7,11.8l-6.7,19.9c-5.8,17.2-30,16.9-35.4-.4l-22.6-72.8c-4.4-14.4,8.9-27.9,23.2-23.4l72.9,22.7c17.1,5.4,17.4,29.7.2,35.5Z"/>
    </g>
  </g>
  <path id="sitemaster9" data-name="sitemaster" class="st8" d="M3056.7,1321.2c15.5,0,28-3.2,37.6-9.7,9.5-6.5,14.2-16.1,14-28.9,0-8.7-2.4-15.4-7.2-20.3-4.7-4.8-10.4-8.3-16.8-10.3-7.8-2.3-15.7-4.1-23.8-5.4-8-1.3-13.8-2.6-17.5-4.1s-5.5-3.6-5.5-6.5,1.7-5.8,5.2-7.9c3.9-2.2,8.4-3.3,12.8-3.1,4.8-.1,9.6,1,13.8,3.4,3.9,2.2,5.9,5,5.9,8.4h29.8c0-12.3-4.6-22-13.7-28.9-9.1-7-20.9-10.4-35.3-10.4-8.6-.1-17.2,1.5-25.2,4.7-7,2.7-13.1,7.2-17.9,13-4.3,5.2-6.6,11.8-6.6,18.6,0,9,2.3,15.9,6.8,20.8,4.4,4.8,10,8.3,16.2,10.3,7.7,2.3,15.6,4.1,23.5,5.4,8.5,1.4,14.6,2.9,18.5,4.3,3.8,1.4,5.8,3.9,5.8,7.4,0,3.3-1.7,6.1-5.2,8.3-3.4,2.2-8.3,3.3-14.5,3.2-6.6,0-12-1.2-16.2-3.6-4.2-2.4-6.4-5.5-6.4-9.4h-29.8c0,8.7,2.4,16.1,7.1,22.2,4.9,6.3,11.4,11.1,18.8,13.9,8.2,3.2,16.9,4.8,25.7,4.7h0ZM3139,1186.6c4.9,0,9.7-1.9,13.1-5.4,3.6-3.5,5.5-8.3,5.4-13.3,0-10.2-8.2-18.5-18.4-18.5h0c-5,0-9.8,1.9-13.3,5.5-3.5,3.4-5.5,8.1-5.4,13-.2,10.2,8,18.6,18.1,18.7,0,0,0,0,0,0h.6ZM3123.4,1319.3h31.2v-120h-31.2v120ZM3234.3,1229.8v-30.5h-21.6v-47.8h-31.2v47.8h-17.8v30.5h17.8v32.9c0,19.3,4.8,33.7,14.3,43.2,9.5,9.5,22.4,14.2,38.5,14.2v-30.5c-7.7,0-13.2-2.1-16.6-6.2s-5-11-5-20.6v-32.8h21.6ZM3242.7,1259.6c0,10.9,2.8,21.6,8.3,31,5.4,9.3,13.1,17,22.4,22.4,9.5,5.5,20.2,8.4,31.2,8.3,12.1,0,24-3.5,34.1-10.3,10-6.6,17.9-15.9,22.8-26.9l-37.2-.2c-2.6,2.1-5.5,3.8-8.5,5-3.9,1.4-8,2.1-12.1,1.9-7,0-13-1.7-17.9-5.2-4.8-3.3-8.2-8.3-9.5-14h89c.8-4.9,1.2-9.9,1-14.9-.3-12.2-3.6-22.7-9.7-31.7-5.9-8.7-14-15.8-23.4-20.5-9.1-4.6-19.3-7.1-29.5-7.1-10.9,0-21.6,2.9-30.8,8.5-18.8,11.4-30.2,31.7-30.1,53.6h0ZM3276.3,1246.6c2.3-5.5,6.1-10.2,11-13.7,5.1-3.4,11.1-5.2,17.3-5,12.3,0,23.4,7.4,28.3,18.7h-56.6ZM3510.3,1197.4c-7.5,0-15,1.3-22,4.2-6.4,2.7-12.1,6.9-16.4,12.4-4.3-5.4-10-9.7-16.4-12.4-7-2.9-14.5-4.3-22-4.2-16.2,0-29.2,5-39.1,14.9-9.9,9.9-14.9,24.6-14.9,43.9v63.1h31.2v-63.1c0-9.6,1.9-16.7,5.6-21.4,3.8-4.6,9.5-7,17.2-7,7.8,0,13.6,2.3,17.3,7,3.7,4.7,5.5,11.8,5.5,21.4v63.1h31.2v-63.1c0-9.6,1.9-16.7,5.6-21.4,3.8-4.6,9.5-7,17.2-7,7.8,0,13.6,2.3,17.3,7,3.7,4.7,5.5,11.8,5.5,21.4v63.1h31.2v-63.1c0-19.3-5-34-14.9-43.9-9.9-9.9-23-14.9-39.1-14.9h0ZM3639.4,1321.2c6.6,0,13.1-1.4,19-4.3,5.9-2.9,9.8-6.3,11.5-10.3v12.7h31.2v-60c-.1-34.1-27.8-61.7-61.9-61.6-34.1.1-61.7,27.8-61.6,61.9,0,22,11.8,42.3,30.8,53.3,9.4,5.5,20.1,8.4,31,8.3h0ZM3639.7,1290.7c-8.3.2-16.3-3.1-22.1-9-5.9-6-8.9-13.5-8.9-22.4s3-16.4,8.9-22.5c5.8-5.9,13.8-9.2,22.1-9,8.8,0,16.1,3,21.8,9s8.6,13.5,8.6,22.4-2.9,16.4-8.6,22.4-13,9-21.8,9h0ZM3764.7,1321.2c15.5,0,28-3.2,37.6-9.7,9.5-6.5,14.2-16.1,14-28.9,0-8.7-2.4-15.4-7.2-20.3-4.7-4.8-10.4-8.3-16.8-10.3-7.8-2.3-15.7-4.1-23.8-5.4-8-1.3-13.8-2.6-17.5-4.1-3.7-1.4-5.5-3.6-5.5-6.5s1.7-5.8,5.2-7.9c3.9-2.2,8.4-3.3,12.8-3.1,4.8-.1,9.6,1.1,13.8,3.4,3.9,2.2,5.9,5,5.9,8.4h29.8c0-12.3-4.6-22-13.7-28.9-9.1-7-20.9-10.4-35.3-10.4-8.6-.1-17.2,1.5-25.2,4.7-7,2.7-13.1,7.2-17.9,13-4.3,5.2-6.6,11.8-6.6,18.6,0,9,2.3,15.9,6.8,20.8,4.4,4.8,10,8.3,16.2,10.3,7.7,2.3,15.6,4.2,23.5,5.4,8.5,1.4,14.6,2.9,18.5,4.3s5.8,3.9,5.8,7.4-1.7,6.1-5.2,8.3c-3.4,2.2-8.3,3.2-14.5,3.2s-12-1.2-16.2-3.6c-4.2-2.4-6.3-5.5-6.4-9.4h-29.8c0,8.7,2.4,16.1,7.1,22.2,4.9,6.3,11.4,11.1,18.8,13.9,8.2,3.2,16.9,4.8,25.7,4.7h0ZM3890.7,1229.8v-30.5h-21.6v-47.8h-31.1v47.8h-17.8v30.5h17.8v32.9c0,19.3,4.8,33.7,14.3,43.2,9.5,9.5,22.4,14.2,38.5,14.2v-30.5c-7.7,0-13.2-2.1-16.6-6.2s-5-11-5-20.6v-32.8h21.6-.1ZM3899,1259.5c0,10.9,2.8,21.6,8.3,31,5.4,9.3,13.1,17,22.4,22.4,9.5,5.5,20.2,8.4,31.2,8.3,12.1,0,24-3.5,34.1-10.3,10-6.6,17.9-15.9,22.8-26.9l-37.2-.2c-2.6,2.1-5.5,3.8-8.5,5-3.9,1.4-8,2.1-12.1,1.9-7,0-13-1.7-17.9-5.2-4.8-3.3-8.2-8.3-9.5-14h89c.8-4.9,1.2-9.9,1-14.9-.3-12.2-3.6-22.7-9.7-31.7-5.9-8.7-14-15.8-23.4-20.5-9.1-4.6-19.3-7.1-29.5-7.1-10.9,0-21.6,2.9-30.8,8.5-18.8,11.4-30.2,31.7-30.1,53.6h0ZM3932.6,1246.5c2.3-5.5,6.1-10.2,11-13.7,5.1-3.4,11.1-5.2,17.3-5,12.3.1,23.4,7.4,28.3,18.7h-56.6ZM4035.9,1319.3h31.2v-63.1c0-9.3,1.7-16.1,5-20.4,3.3-4.3,8.5-6.5,15.4-6.5h1.2v-30.5h-1.4c-15.3,0-27.7,4.8-37.2,14.4-9.5,9.6-14.2,23.9-14.2,43v63.1Z"/>
  <g id="Capa_2-211" data-name="Capa_2-2">
    <g id="Capa_1_Imagen11" data-name="Capa_1_Imagen">
      <path class="st0" d="M2902.3,1631.8v-36.7c0-61.2-24.5-85.6-85.7-85.6h-73.4c-61.2,0-85.6,24.5-85.6,85.6v73.4c0,61.2,24.5,85.6,85.6,85.6h36.7"/>
      <path class="st1" d="M2889.6,1703.2l-19.9,6.7c-5.6,1.8-9.9,6.2-11.7,11.8l-6.7,19.9c-5.8,17.2-30,16.9-35.4-.4l-22.6-72.8c-4.4-14.4,8.9-27.9,23.2-23.4l72.9,22.7c17.1,5.4,17.4,29.7.2,35.5Z"/>
    </g>
  </g>
  <path id="sitemaster10" data-name="sitemaster" class="st6" d="M3056.7,1699.2c15.5,0,28-3.2,37.6-9.7,9.5-6.5,14.2-16.1,14-28.9,0-8.7-2.4-15.4-7.2-20.3-4.7-4.8-10.4-8.3-16.8-10.3-7.8-2.3-15.7-4.1-23.8-5.4-8-1.3-13.8-2.6-17.5-4.1s-5.5-3.6-5.5-6.5,1.7-5.8,5.2-7.9c3.9-2.2,8.4-3.3,12.8-3.1,4.8-.1,9.6,1,13.8,3.4,3.9,2.2,5.9,5,5.9,8.4h29.8c0-12.3-4.6-22-13.7-28.9-9.1-7-20.9-10.4-35.3-10.4-8.6-.1-17.2,1.5-25.2,4.7-7,2.7-13.1,7.2-17.9,13-4.3,5.2-6.6,11.8-6.6,18.6,0,9,2.3,15.9,6.8,20.8,4.4,4.8,10,8.3,16.2,10.3,7.7,2.3,15.6,4.1,23.5,5.4,8.5,1.4,14.6,2.9,18.5,4.3,3.8,1.4,5.8,3.9,5.8,7.4,0,3.3-1.7,6.1-5.2,8.3-3.4,2.2-8.3,3.3-14.5,3.2-6.6,0-12-1.2-16.2-3.6-4.2-2.4-6.4-5.5-6.4-9.4h-29.8c0,8.7,2.4,16.1,7.1,22.2,4.9,6.3,11.4,11.1,18.8,13.9,8.2,3.2,16.9,4.8,25.7,4.7h0ZM3139,1564.6c4.9,0,9.7-1.9,13.1-5.4,3.6-3.5,5.5-8.3,5.4-13.3,0-10.2-8.2-18.5-18.4-18.5h0c-5,0-9.8,1.9-13.3,5.5-3.5,3.4-5.5,8.1-5.4,13-.2,10.2,8,18.6,18.1,18.7,0,0,0,0,0,0h.6ZM3123.4,1697.3h31.2v-120h-31.2v120ZM3234.3,1607.8v-30.5h-21.6v-47.8h-31.2v47.8h-17.8v30.5h17.8v32.9c0,19.3,4.8,33.7,14.3,43.2,9.5,9.5,22.4,14.2,38.5,14.2v-30.5c-7.7,0-13.2-2.1-16.6-6.2s-5-11-5-20.6v-32.8h21.6ZM3242.7,1637.6c0,10.9,2.8,21.6,8.3,31,5.4,9.3,13.1,17,22.4,22.4,9.5,5.5,20.2,8.4,31.2,8.3,12.1,0,24-3.5,34.1-10.3,10-6.6,17.9-15.9,22.8-26.9l-37.2-.2c-2.6,2.1-5.5,3.8-8.5,5-3.9,1.4-8,2.1-12.1,1.9-7,0-13-1.7-17.9-5.2-4.8-3.3-8.2-8.3-9.5-14h89c.8-4.9,1.2-9.9,1-14.9-.3-12.2-3.6-22.7-9.7-31.7-5.9-8.7-14-15.8-23.4-20.5-9.1-4.6-19.3-7.1-29.5-7.1-10.9,0-21.6,2.9-30.8,8.5-18.8,11.4-30.2,31.7-30.1,53.6h0ZM3276.3,1624.6c2.3-5.5,6.1-10.2,11-13.7,5.1-3.4,11.1-5.2,17.3-5,12.3,0,23.4,7.4,28.3,18.7h-56.6ZM3510.3,1575.4c-7.5,0-15,1.3-22,4.2-6.4,2.7-12.1,6.9-16.4,12.4-4.3-5.4-10-9.7-16.4-12.4-7-2.9-14.5-4.3-22-4.2-16.2,0-29.2,5-39.1,14.9-9.9,9.9-14.9,24.6-14.9,43.9v63.1h31.2v-63.1c0-9.6,1.9-16.7,5.6-21.4,3.8-4.6,9.5-7,17.2-7,7.8,0,13.6,2.3,17.3,7,3.7,4.7,5.5,11.8,5.5,21.4v63.1h31.2v-63.1c0-9.6,1.9-16.7,5.6-21.4,3.8-4.6,9.5-7,17.2-7,7.8,0,13.6,2.3,17.3,7,3.7,4.7,5.5,11.8,5.5,21.4v63.1h31.2v-63.1c0-19.3-5-34-14.9-43.9-9.9-9.9-23-14.9-39.1-14.9h0ZM3639.4,1699.2c6.6,0,13.1-1.4,19-4.3,5.9-2.9,9.8-6.3,11.5-10.3v12.7h31.2v-60c-.1-34.1-27.8-61.7-61.9-61.6-34.1.1-61.7,27.8-61.6,61.9,0,22,11.8,42.3,30.8,53.3,9.4,5.5,20.1,8.4,31,8.3h0ZM3639.7,1668.7c-8.3.2-16.3-3.1-22.1-9-5.9-6-8.9-13.5-8.9-22.4s3-16.4,8.9-22.5c5.8-5.9,13.8-9.2,22.1-9,8.8,0,16.1,3,21.8,9s8.6,13.5,8.6,22.4-2.9,16.4-8.6,22.4-13,9-21.8,9h0ZM3764.7,1699.2c15.5,0,28-3.2,37.6-9.7,9.5-6.5,14.2-16.1,14-28.9,0-8.7-2.4-15.4-7.2-20.3-4.7-4.8-10.4-8.3-16.8-10.3-7.8-2.3-15.7-4.1-23.8-5.4-8-1.3-13.8-2.6-17.5-4.1-3.7-1.4-5.5-3.6-5.5-6.5s1.7-5.8,5.2-7.9c3.9-2.2,8.4-3.3,12.8-3.1,4.8-.1,9.6,1.1,13.8,3.4,3.9,2.2,5.9,5,5.9,8.4h29.8c0-12.3-4.6-22-13.7-28.9-9.1-7-20.9-10.4-35.3-10.4-8.6-.1-17.2,1.5-25.2,4.7-7,2.7-13.1,7.2-17.9,13-4.3,5.2-6.6,11.8-6.6,18.6,0,9,2.3,15.9,6.8,20.8,4.4,4.8,10,8.3,16.2,10.3,7.7,2.3,15.6,4.2,23.5,5.4,8.5,1.4,14.6,2.9,18.5,4.3s5.8,3.9,5.8,7.4-1.7,6.1-5.2,8.3c-3.4,2.2-8.3,3.2-14.5,3.2s-12-1.2-16.2-3.6c-4.2-2.4-6.3-5.5-6.4-9.4h-29.8c0,8.7,2.4,16.1,7.1,22.2,4.9,6.3,11.4,11.1,18.8,13.9,8.2,3.2,16.9,4.8,25.7,4.7h0ZM3890.7,1607.8v-30.5h-21.6v-47.8h-31.1v47.8h-17.8v30.5h17.8v32.9c0,19.3,4.8,33.7,14.3,43.2,9.5,9.5,22.4,14.2,38.5,14.2v-30.5c-7.7,0-13.2-2.1-16.6-6.2s-5-11-5-20.6v-32.8h21.6-.1ZM3899,1637.5c0,10.9,2.8,21.6,8.3,31,5.4,9.3,13.1,17,22.4,22.4,9.5,5.5,20.2,8.4,31.2,8.3,12.1,0,24-3.5,34.1-10.3,10-6.6,17.9-15.9,22.8-26.9l-37.2-.2c-2.6,2.1-5.5,3.8-8.5,5-3.9,1.4-8,2.1-12.1,1.9-7,0-13-1.7-17.9-5.2-4.8-3.3-8.2-8.3-9.5-14h89c.8-4.9,1.2-9.9,1-14.9-.3-12.2-3.6-22.7-9.7-31.7-5.9-8.7-14-15.8-23.4-20.5-9.1-4.6-19.3-7.1-29.5-7.1-10.9,0-21.6,2.9-30.8,8.5-18.8,11.4-30.2,31.7-30.1,53.6h0ZM3932.6,1624.5c2.3-5.5,6.1-10.2,11-13.7,5.1-3.4,11.1-5.2,17.3-5,12.3.1,23.4,7.4,28.3,18.7h-56.6ZM4035.9,1697.3h31.2v-63.1c0-9.3,1.7-16.1,5-20.4,3.3-4.3,8.5-6.5,15.4-6.5h1.2v-30.5h-1.4c-15.3,0-27.7,4.8-37.2,14.4-9.5,9.6-14.2,23.9-14.2,43v63.1Z"/>
  <path id="sitemaster11" data-name="sitemaster" class="st8" d="M261.7-829c15.5,0,28-3.2,37.6-9.7,9.5-6.5,14.2-16.1,14-28.9,0-8.7-2.4-15.4-7.2-20.3-4.7-4.8-10.4-8.3-16.8-10.3-7.8-2.3-15.7-4.1-23.8-5.4-8-1.3-13.8-2.6-17.5-4.1s-5.5-3.6-5.5-6.5,1.7-5.8,5.2-7.9c3.9-2.2,8.4-3.3,12.8-3.1,4.8-.1,9.6,1,13.8,3.4,3.9,2.2,5.9,5,5.9,8.4h29.8c0-12.3-4.6-22-13.7-28.9-9.1-7-20.9-10.4-35.3-10.4-8.6-.1-17.2,1.5-25.2,4.7-7,2.7-13.1,7.2-17.9,13-4.3,5.2-6.6,11.8-6.6,18.6,0,9,2.3,15.9,6.8,20.8,4.4,4.8,10,8.3,16.2,10.3,7.7,2.3,15.6,4.1,23.5,5.4,8.5,1.4,14.6,2.9,18.5,4.3,3.8,1.4,5.8,3.9,5.8,7.4,0,3.3-1.7,6.1-5.2,8.3-3.4,2.2-8.3,3.3-14.5,3.2-6.6,0-12-1.2-16.2-3.6-4.2-2.4-6.4-5.5-6.4-9.4h-29.8c0,8.7,2.4,16.1,7.1,22.2,4.9,6.3,11.4,11.1,18.8,13.9,8.2,3.2,16.9,4.8,25.7,4.7h0ZM344-963.6c4.9,0,9.7-1.9,13.1-5.4,3.6-3.5,5.5-8.3,5.4-13.3,0-10.2-8.2-18.5-18.4-18.5h0c-5,0-9.8,1.9-13.3,5.5-3.5,3.4-5.5,8.1-5.4,13-.2,10.2,8,18.6,18.1,18.7,0,0,0,0,0,0h.6ZM328.4-830.9h31.2v-120h-31.2v120ZM439.3-920.4v-30.5h-21.6v-47.8h-31.2v47.8h-17.8v30.5h17.8v32.9c0,19.3,4.8,33.7,14.3,43.2,9.5,9.5,22.4,14.2,38.5,14.2v-30.5c-7.7,0-13.2-2.1-16.6-6.2s-5-11-5-20.6v-32.8h21.6ZM447.7-890.6c0,10.9,2.8,21.6,8.3,31,5.4,9.3,13.1,17,22.4,22.4,9.5,5.5,20.2,8.4,31.2,8.3,12.1,0,24-3.5,34.1-10.3,10-6.6,17.9-15.9,22.8-26.9l-37.2-.2c-2.6,2.1-5.5,3.8-8.5,5-3.9,1.4-8,2.1-12.1,1.9-7,0-13-1.7-17.9-5.2-4.8-3.3-8.2-8.3-9.5-14h89c.8-4.9,1.2-9.9,1-14.9-.3-12.2-3.6-22.7-9.7-31.7-5.9-8.7-14-15.8-23.4-20.5-9.1-4.6-19.3-7.1-29.5-7.1-10.9,0-21.6,2.9-30.8,8.5-18.8,11.4-30.2,31.7-30.1,53.6h0ZM481.3-903.6c2.3-5.5,6.1-10.2,11-13.7,5.1-3.4,11.1-5.2,17.3-5,12.3,0,23.4,7.4,28.3,18.7h-56.6ZM715.3-952.8c-7.5,0-15,1.3-22,4.2-6.4,2.7-12.1,6.9-16.4,12.4-4.3-5.4-10-9.7-16.4-12.4-7-2.9-14.5-4.3-22-4.2-16.2,0-29.2,5-39.1,14.9-9.9,9.9-14.9,24.6-14.9,43.9v63.1h31.2v-63.1c0-9.6,1.9-16.7,5.6-21.4,3.8-4.6,9.5-7,17.2-7,7.8,0,13.6,2.3,17.3,7,3.7,4.7,5.5,11.8,5.5,21.4v63.1h31.2v-63.1c0-9.6,1.9-16.7,5.6-21.4,3.8-4.6,9.5-7,17.2-7,7.8,0,13.6,2.3,17.3,7,3.7,4.7,5.5,11.8,5.5,21.4v63.1h31.2v-63.1c0-19.3-5-34-14.9-43.9-9.9-9.9-23-14.9-39.1-14.9h0ZM844.4-829c6.6,0,13.1-1.4,19-4.3,5.9-2.9,9.8-6.3,11.5-10.3v12.7h31.2v-60c-.1-34.1-27.8-61.7-61.9-61.6-34.1.1-61.7,27.8-61.6,61.9,0,22,11.8,42.3,30.8,53.3,9.4,5.5,20.1,8.4,31,8.3h0ZM844.6-859.4c-8.3.2-16.3-3.1-22.1-9-5.9-6-8.9-13.5-8.9-22.4s3-16.4,8.9-22.5c5.8-5.9,13.8-9.2,22.1-9,8.8,0,16.1,3,21.8,9s8.6,13.5,8.6,22.4-2.9,16.4-8.6,22.4-13,9-21.8,9h0ZM969.6-829c15.5,0,28-3.2,37.6-9.7,9.5-6.5,14.2-16.1,14-28.9,0-8.7-2.4-15.4-7.2-20.3-4.7-4.8-10.4-8.3-16.8-10.3-7.8-2.3-15.7-4.1-23.8-5.4-8-1.3-13.8-2.6-17.5-4.1-3.7-1.4-5.5-3.6-5.5-6.5s1.7-5.8,5.2-7.9c3.9-2.2,8.4-3.3,12.8-3.1,4.8-.1,9.6,1.1,13.8,3.4,3.9,2.2,5.9,5,5.9,8.4h29.8c0-12.3-4.6-22-13.7-28.9-9.1-7-20.9-10.4-35.3-10.4-8.6-.1-17.2,1.5-25.2,4.7-7,2.7-13.1,7.2-17.9,13-4.3,5.2-6.6,11.8-6.6,18.6,0,9,2.3,15.9,6.8,20.8,4.4,4.8,10,8.3,16.2,10.3,7.7,2.3,15.6,4.2,23.5,5.4,8.5,1.4,14.6,2.9,18.5,4.3s5.8,3.9,5.8,7.4-1.7,6.1-5.2,8.3c-3.4,2.2-8.3,3.2-14.5,3.2s-12-1.2-16.2-3.6c-4.2-2.4-6.3-5.5-6.4-9.4h-29.8c0,8.7,2.4,16.1,7.1,22.2,4.9,6.3,11.4,11.1,18.8,13.9,8.2,3.2,16.9,4.8,25.7,4.7h0ZM1095.6-920.4v-30.5h-21.6v-47.8h-31.1v47.8h-17.8v30.5h17.8v32.9c0,19.3,4.8,33.7,14.3,43.2,9.5,9.5,22.4,14.2,38.5,14.2v-30.5c-7.7,0-13.2-2.1-16.6-6.2s-5-11-5-20.6v-32.8h21.6-.1ZM1104-890.6c0,10.9,2.8,21.6,8.3,31,5.4,9.3,13.1,17,22.4,22.4,9.5,5.5,20.2,8.4,31.2,8.3,12.1,0,24-3.5,34.1-10.3,10-6.6,17.9-15.9,22.8-26.9l-37.2-.2c-2.6,2.1-5.5,3.8-8.5,5-3.9,1.4-8,2.1-12.1,1.9-7,0-13-1.7-17.9-5.2-4.8-3.3-8.2-8.3-9.5-14h89c.8-4.9,1.2-9.9,1-14.9-.3-12.2-3.6-22.7-9.7-31.7-5.9-8.7-14-15.8-23.4-20.5-9.1-4.6-19.3-7.1-29.5-7.1-10.9,0-21.6,2.9-30.8,8.5-18.8,11.4-30.2,31.7-30.1,53.6h0ZM1137.6-903.6c2.3-5.5,6.1-10.2,11-13.7,5.1-3.4,11.1-5.2,17.3-5,12.3.1,23.4,7.4,28.3,18.7h-56.6ZM1240.9-830.9h31.2v-63.1c0-9.3,1.7-16.1,5-20.4,3.3-4.3,8.5-6.5,15.4-6.5h1.2v-30.5h-1.4c-15.3,0-27.7,4.8-37.2,14.4-9.5,9.6-14.2,23.9-14.2,43v63.1Z"/>
</svg>